# This file uses feet as units for non-parametric coordinates.

mtllib altar.mtl
g default
v -60.252899 43.532604 -1.686921
v 4.698748 43.532604 -1.686921
v 55.558357 21.882053 201.950775
v -111.105713 21.882053 202.019424
v 55.558529 21.882053 -1.686921
v -111.105919 21.882053 -1.686921
v -158.767578 0.231504 233.798416
v 103.233269 0.231507 233.729797
v 103.233612 0.231516 -1.686921
v -158.767914 0.231507 -1.686921
v -158.767578 0.231504 -237.172348
v 103.233269 0.231507 -237.103775
v -111.105713 21.882053 -205.393295
v 55.558357 21.882053 -205.324753
v 50.146294 43.532604 196.540924
v 55.558357 38.120510 201.950775
v -111.105713 38.120510 202.019424
v -105.693611 43.532604 196.605072
v -111.105919 38.120510 -1.686921
v -105.693825 43.532604 -1.686921
v 50.146454 43.532604 -1.686921
v 55.558529 38.120510 -1.686921
v 97.821182 21.882053 228.319107
v 103.233269 16.469959 233.729797
v -158.767578 16.469950 233.798416
v -153.355515 21.882051 228.384903
v 97.821503 21.882065 -1.686921
v 103.233612 16.469965 -1.686921
v -158.767914 16.469959 -1.686921
v -153.355789 21.882053 -1.686921
v 103.233269 16.469959 -237.103775
v 97.821182 21.882053 -231.693008
v -158.767578 16.469950 -237.172348
v -153.355515 21.882051 -231.758789
v 55.558357 38.120510 -205.324753
v 50.146294 43.532604 -199.914825
v -105.693611 43.532604 -199.978958
v -111.105713 38.120510 -205.393295
v 18.875240 56.119019 118.699219
v -73.666176 56.119019 118.699219
v -73.666176 56.119019 -124.433670
v 18.875240 56.119019 -124.433670
v -79.081146 45.165924 124.114197
v 24.290188 45.165924 124.114197
v 24.290188 45.165924 -129.848648
v -79.081146 45.165924 -129.848648
v 18.875240 128.209961 118.699219
v -73.666176 128.209961 118.699219
v -73.666176 128.209961 -124.433670
v 18.875240 128.209961 -124.433670
v 32.200371 137.707382 143.464478
v -86.991264 137.707382 143.464478
v -86.991264 137.707382 -149.198914
v 32.200371 137.707382 -149.198914
v -80.727173 132.958649 -133.818054
v -80.727173 132.958649 128.083618
v 25.936262 132.958649 128.083618
v 25.936262 132.958649 -133.818054
v 23.056593 56.119019 122.880569
v 24.290188 54.885406 124.114197
v -79.081146 54.885406 124.114197
v -77.847557 56.119019 122.880569
v -77.847557 56.119019 -128.615021
v -79.081146 54.885406 -129.848648
v 24.290188 54.885406 -129.848648
v 23.056593 56.119019 -128.615021
v 24.618040 129.037369 124.846786
v 23.267025 128.209961 123.090935
v -78.057938 128.209961 123.090935
v -79.408981 129.037369 124.846786
v -78.057938 128.209961 -128.825424
v -79.408981 129.037369 -130.581284
v 23.267025 128.209961 -128.825424
v 24.618040 129.037369 -130.581284
v -86.991264 141.408676 143.464478
v -85.757668 142.642319 142.230881
v 30.966753 142.642319 142.230881
v 32.200371 141.408676 143.464478
v 30.966753 142.642319 -147.965271
v 32.200371 141.408676 -149.198914
v -85.757668 142.642319 -147.965271
v -86.991264 141.408676 -149.198914
v -76.024048 137.611343 130.915741
v 21.634060 137.611343 130.915741
v -76.024048 137.611343 -135.820099
v 21.634060 137.611343 -135.820099
v -76.024048 146.568451 130.915741
v -70.597176 151.995316 125.488861
v 16.207184 151.995316 125.488861
v 21.634060 146.568451 130.915741
v -70.597176 151.995316 -130.393234
v -76.024048 146.568451 -135.820099
v 16.207184 151.995316 -130.393234
v 21.634060 146.568451 -135.820099
vt 0.547798 0.321314
vt 0.280815 0.320065
vt 0.280815 0.312411
vt 0.538897 0.312411
vt 0.013831 0.321314
vt 0.022732 0.312411
vt 0.532966 0.306478
vt 0.280815 0.306478
vt 0.028663 0.306478
vt 0.280815 0.017530
vt 0.547874 0.016286
vt 0.538973 0.025184
vt 0.280815 0.025184
vt 0.533038 0.031117
vt 0.280815 0.031117
vt 0.022657 0.025184
vt 0.013756 0.016286
vt 0.028591 0.031117
vt 0.620282 0.684888
vt 0.970599 0.684518
vt 0.957171 0.697940
vt 0.620282 0.697940
vt 0.948217 0.706890
vt 0.620282 0.706890
vt 0.283393 0.697940
vt 0.269966 0.684518
vt 0.292346 0.706890
vt 0.970485 0.987002
vt 0.620281 0.986621
vt 0.620281 0.973569
vt 0.957057 0.973569
vt 0.270077 0.987002
vt 0.283505 0.973569
vt 0.948111 0.964618
vt 0.620282 0.964618
vt 0.292452 0.964618
vt 0.186691 0.407532
vt 0.505317 0.407508
vt 0.505324 0.501984
vt 0.186694 0.502008
vt 0.188208 0.513156
vt 0.506835 0.513156
vt 0.506835 0.607632
vt 0.188206 0.607632
vt 0.454356 0.242293
vt 0.108799 0.242294
vt 0.115167 0.235925
vt 0.447987 0.235924
vt 0.446371 0.234307
vt 0.116784 0.234308
vt 0.108798 0.094086
vt 0.454357 0.094086
vt 0.447988 0.100455
vt 0.115167 0.100455
vt 0.446371 0.102072
vt 0.116783 0.102072
vt 0.797568 0.078194
vt 0.797568 0.412935
vt 0.794135 0.417177
vt 0.794135 0.073953
vt 0.798996 0.410634
vt 0.798995 0.080496
vt 0.784831 0.439760
vt 0.784830 0.051371
vt 0.782221 0.437334
vt 0.782220 0.053796
vt 0.780604 0.435717
vt 0.780604 0.055413
vt 0.933210 0.412935
vt 0.933210 0.078194
vt 0.936643 0.073953
vt 0.936644 0.417177
vt 0.931783 0.410634
vt 0.931783 0.080496
vt 0.943860 0.053796
vt 0.943860 0.437334
vt 0.949080 0.053796
vt 0.949080 0.437334
vt 0.950697 0.435717
vt 0.950697 0.055413
vt 0.976575 0.638878
vt 0.615276 0.638878
vt 0.621146 0.633008
vt 0.970706 0.633009
vt 0.963594 0.625897
vt 0.628258 0.625897
vt 0.615277 0.499158
vt 0.976575 0.499157
vt 0.970706 0.505026
vt 0.621147 0.505027
vt 0.963594 0.512138
vt 0.628258 0.512139
vt 0.504059 0.260146
vt 0.504134 0.077435
vt 0.280815 0.077435
vt 0.280815 0.260146
vt 0.057495 0.077435
vt 0.057570 0.260146
vt 0.620281 0.889457
vt 0.620281 0.782040
vt 0.804751 0.404879
vt 0.926028 0.404879
vt 0.926028 0.086251
vt 0.804751 0.086251
vt 0.440891 0.228828
vt 0.440891 0.107552
vt 0.122263 0.107551
vt 0.122263 0.228828
vt 0.628158 0.435718
vt 0.628157 0.055413
vt 0.626541 0.437334
vt 0.626540 0.053796
vt 0.066932 0.513153
vt 0.066929 0.607629
vt 0.065416 0.502008
vt 0.065416 0.407532
vt 0.626541 0.442184
vt 0.626540 0.048945
vn 0.707108 0.707105 0.000001
vn 0.707108 0.707105 0.000001
vn 0.707108 0.707105 -0.000000
vn 0.707108 0.707105 -0.000000
vn 0.000291 0.707107 0.707106
vn 0.000291 0.707107 0.707106
vn 0.000291 0.707107 0.707106
vn 0.000291 0.707107 0.707106
vn -0.707106 0.707107 0.000001
vn -0.707106 0.707107 0.000001
vn -0.707106 0.707107 0.000000
vn -0.707106 0.707107 0.000000
vn -0.707106 0.707107 -0.000001
vn -0.707106 0.707107 -0.000001
vn 0.707108 0.707105 -0.000001
vn 0.707108 0.707105 -0.000001
vn 0.707106 0.707107 0.000001
vn 0.707106 0.707107 0.000001
vn 0.707106 0.707107 -0.000000
vn 0.707106 0.707107 -0.000000
vn 0.000185 0.707107 0.707106
vn 0.000185 0.707107 0.707106
vn 0.000185 0.707107 0.707106
vn 0.000185 0.707107 0.707106
vn -0.707106 0.707108 0.000001
vn -0.707106 0.707108 0.000001
vn -0.707106 0.707108 0.000000
vn -0.707106 0.707108 0.000000
vn 0.707106 0.707107 -0.000001
vn 0.707106 0.707107 -0.000001
vn -0.707106 0.707108 -0.000001
vn -0.707106 0.707108 -0.000001
vn 0.000185 0.707111 -0.707102
vn 0.000185 0.707111 -0.707102
vn 0.000185 0.707111 -0.707102
vn 0.000185 0.707111 -0.707102
vn 0.000291 0.707109 -0.707105
vn 0.000291 0.707109 -0.707105
vn 0.000291 0.707109 -0.707105
vn 0.000291 0.707109 -0.707105
vn 0.000262 0.000000 1.000000
vn 0.000262 0.000000 1.000000
vn 0.000262 0.000000 1.000000
vn 0.000262 0.000000 1.000000
vn 1.000000 0.000000 0.000001
vn 1.000000 0.000000 0.000000
vn 1.000000 0.000000 0.000000
vn 1.000000 0.000000 0.000001
vn -1.000000 0.000000 0.000000
vn -1.000000 0.000000 0.000001
vn -1.000000 0.000000 0.000001
vn -1.000000 0.000000 0.000000
vn 0.000412 0.000000 1.000000
vn 0.000412 0.000000 1.000000
vn 0.000412 0.000000 1.000000
vn 0.000412 0.000000 1.000000
vn -1.000000 0.000000 0.000000
vn -1.000000 0.000000 0.000001
vn -1.000000 0.000000 0.000001
vn -1.000000 0.000000 0.000000
vn 1.000000 0.000000 0.000001
vn 1.000000 0.000000 -0.000000
vn 1.000000 0.000000 -0.000000
vn 1.000000 0.000000 0.000001
vn -0.000000 1.000000 0.000000
vn -0.000000 1.000000 0.000000
vn -0.000000 1.000000 0.000000
vn -0.000000 1.000000 0.000000
vn -0.000000 1.000000 0.000000
vn -0.000000 1.000000 0.000000
vn -0.000000 1.000000 0.000000
vn -0.000000 1.000000 0.000000
vn 0.000000 1.000000 -0.000000
vn 0.000000 1.000000 -0.000000
vn 0.000000 1.000000 -0.000000
vn 0.000000 1.000000 -0.000000
vn 0.000000 1.000000 -0.000000
vn 0.000000 1.000000 -0.000000
vn 0.000262 0.000000 -1.000000
vn 0.000262 0.000000 -1.000000
vn 0.000262 0.000000 -1.000000
vn 0.000262 0.000000 -1.000000
vn 1.000000 0.000000 -0.000001
vn 1.000000 0.000000 -0.000001
vn -1.000000 0.000000 -0.000001
vn -1.000000 0.000000 -0.000001
vn 0.000411 0.000000 -1.000000
vn 0.000411 0.000000 -1.000000
vn 0.000411 0.000000 -1.000000
vn 0.000411 0.000000 -1.000000
vn -1.000000 0.000000 -0.000001
vn -1.000000 0.000000 -0.000001
vn 1.000000 0.000000 -0.000001
vn 1.000000 0.000000 -0.000001
vn -0.000000 1.000000 -0.000000
vn -0.000000 1.000000 -0.000000
vn -0.000000 1.000000 -0.000000
vn -0.000000 1.000000 -0.000000
vn 0.000000 1.000000 -0.000000
vn 0.000000 1.000000 -0.000000
vn 0.000000 0.000000 1.000000
vn 0.000000 0.000000 1.000000
vn 0.000000 0.000000 1.000000
vn 0.000000 0.000000 1.000000
vn -1.000000 0.000000 0.000000
vn -1.000000 0.000000 0.000000
vn -1.000000 0.000000 0.000000
vn -1.000000 0.000000 0.000000
vn 0.000000 0.000000 -1.000000
vn 0.000000 0.000000 -1.000000
vn 0.000000 0.000000 -1.000000
vn 0.000000 0.000000 -1.000000
vn 1.000000 0.000000 0.000000
vn 1.000000 0.000000 0.000000
vn 1.000000 0.000000 0.000000
vn 1.000000 0.000000 0.000000
vn 0.000000 -0.955496 0.295003
vn 0.000000 -0.955496 0.295003
vn 0.000000 -0.955496 0.295003
vn 0.000000 -0.955496 0.295003
vn -0.604117 -0.796896 0.000000
vn -0.604117 -0.796896 0.000000
vn -0.604117 -0.796896 0.000000
vn -0.604117 -0.796896 0.000000
vn 0.000000 -0.955496 -0.295003
vn 0.000000 -0.955496 -0.295003
vn 0.000000 -0.955496 -0.295003
vn 0.000000 -0.955496 -0.295003
vn 0.604116 -0.796896 0.000000
vn 0.604116 -0.796896 0.000000
vn 0.604116 -0.796896 0.000000
vn 0.604116 -0.796896 0.000000
vn 0.707112 0.707102 0.000000
vn 0.707112 0.707102 0.000000
vn 0.707112 0.707102 0.000000
vn 0.707112 0.707102 0.000000
vn 0.000000 0.707112 0.707102
vn 0.000000 0.707112 0.707102
vn 0.000000 0.707112 0.707102
vn 0.000000 0.707112 0.707102
vn -0.707109 0.707104 0.000000
vn -0.707109 0.707104 0.000000
vn -0.707109 0.707104 0.000000
vn -0.707109 0.707104 0.000000
vn 0.000000 0.707112 -0.707102
vn 0.000000 0.707112 -0.707102
vn 0.000000 0.707112 -0.707102
vn 0.000000 0.707112 -0.707102
vn 0.522271 -0.852780 0.000000
vn 0.522271 -0.852780 0.000000
vn 0.522271 -0.852780 0.000000
vn 0.522271 -0.852780 0.000000
vn 0.000000 -0.993215 0.116290
vn 0.000000 -0.689660 0.724133
vn 0.000000 -0.689660 0.724133
vn 0.000000 -0.993215 0.116290
vn -0.522261 -0.852786 0.000000
vn -0.522261 -0.852786 0.000000
vn -0.522261 -0.852786 0.000000
vn -0.522261 -0.852786 0.000000
vn 0.000000 -0.993215 -0.116290
vn 0.000000 -0.689655 -0.724138
vn 0.000000 -0.689655 -0.724138
vn 0.000000 -0.993215 -0.116289
vn -0.707121 0.707093 0.000000
vn -0.707121 0.707093 0.000000
vn -0.707121 0.707093 0.000000
vn -0.707121 0.707093 0.000000
vn 0.000000 0.707090 0.707124
vn 0.000000 0.707090 0.707124
vn 0.000000 0.707090 0.707124
vn 0.000000 0.707090 0.707124
vn 0.707113 0.707100 0.000000
vn 0.707113 0.707100 0.000000
vn 0.707113 0.707100 0.000000
vn 0.707113 0.707100 0.000000
vn 0.000000 0.707103 -0.707110
vn 0.000000 0.707103 -0.707110
vn 0.000000 0.707103 -0.707110
vn 0.000000 0.707103 -0.707110
vn 0.000000 0.000000 1.000000
vn 0.000000 0.000000 1.000000
vn 0.000000 0.000000 1.000000
vn 0.000000 0.000000 1.000000
vn 0.000000 0.000000 -1.000000
vn 0.000000 0.000000 -1.000000
vn 0.000000 0.000000 -1.000000
vn 0.000000 0.000000 -1.000000
vn 1.000000 0.000000 0.000000
vn 1.000000 0.000000 0.000000
vn 1.000000 0.000000 0.000000
vn 1.000000 0.000000 0.000000
vn -1.000000 0.000000 0.000000
vn -1.000000 0.000000 0.000000
vn -1.000000 0.000000 0.000000
vn -1.000000 0.000000 0.000000
vn 0.000000 1.000000 -0.000001
vn 0.000000 1.000000 -0.000001
vn 0.000000 1.000000 -0.000001
vn 0.000000 1.000000 -0.000001
vn 0.000000 1.000000 0.000001
vn 0.000000 1.000000 0.000001
vn 0.000000 1.000000 0.000001
vn 0.000000 1.000000 0.000001
vn 0.000000 -1.000000 0.000001
vn 0.000000 -1.000000 0.000001
vn 0.000000 -1.000000 -0.000001
vn 0.000000 -1.000000 -0.000001
vn 0.000000 1.000000 0.000000
vn 0.000000 1.000000 0.000000
vn 0.000000 1.000000 0.000000
vn 0.000000 1.000000 0.000000
vn -0.947875 -0.318642 0.000000
vn -0.947875 -0.318642 0.000000
vn -0.947875 -0.318642 0.000000
vn -0.947875 -0.318642 0.000000
vn 0.000000 -0.636591 0.771202
vn 0.000000 -0.636591 0.771202
vn 0.947873 -0.318648 0.000000
vn 0.947873 -0.318648 0.000000
vn 0.947873 -0.318648 0.000000
vn 0.947873 -0.318648 0.000000
vn 0.000000 -0.636584 -0.771208
vn 0.000000 -0.636584 -0.771208
vn 0.000000 0.000000 1.000000
vn 0.000000 0.000000 1.000000
vn 0.000000 0.000000 1.000000
vn 0.000000 0.000000 1.000000
vn 1.000000 0.000000 0.000000
vn 1.000000 0.000000 0.000000
vn 1.000000 0.000000 0.000000
vn 1.000000 0.000000 0.000000
vn 0.000000 0.000000 -1.000000
vn 0.000000 0.000000 -1.000000
vn 0.000000 0.000000 -1.000000
vn 0.000000 0.000000 -1.000000
vn -1.000000 0.000000 0.000000
vn -1.000000 0.000000 0.000000
vn -1.000000 0.000000 0.000000
vn -1.000000 0.000000 0.000000
vn -0.707106 0.707107 0.000000
vn -0.707106 0.707107 0.000000
vn -0.707106 0.707107 0.000000
vn -0.707106 0.707107 0.000000
vn 0.000000 0.707107 0.707106
vn 0.000000 0.707107 0.707106
vn 0.000000 0.707107 0.707106
vn 0.000000 0.707107 0.707107
vn 0.707106 0.707108 0.000000
vn 0.707106 0.707107 0.000000
vn 0.707106 0.707107 0.000000
vn 0.707106 0.707107 0.000000
vn 0.000000 0.707106 -0.707107
vn 0.000000 0.707106 -0.707107
vn 0.000000 0.707106 -0.707107
vn 0.000000 0.707106 -0.707107
vn 0.000000 0.000000 1.000000
vn 0.000000 0.000000 1.000000
vn 0.000000 0.000000 1.000000
vn 0.000000 0.000000 1.000000
vn 0.000000 1.000000 0.000000
vn 0.000000 1.000000 0.000000
vn 0.000000 1.000000 0.000000
vn 0.000000 1.000000 0.000000
vn 0.000000 0.000000 -1.000000
vn 0.000000 0.000000 -1.000000
vn 0.000000 0.000000 -1.000000
vn 0.000000 0.000000 -1.000000
vn 1.000000 0.000000 0.000000
vn 1.000000 0.000000 0.000000
vn 1.000000 0.000000 0.000000
vn 1.000000 0.000000 0.000000
vn -1.000000 0.000000 0.000000
vn -1.000000 0.000000 0.000000
vn -1.000000 0.000000 0.000000
vn -1.000000 0.000000 0.000000
s 1
g polySurface173
usemtl lambert5SG
f 15/34/1 16/31/2 22/30/3 21/35/4
s off
f 16/31/5 15/34/6 18/23/7 17/21/8
s 2
f 17/21/9 18/23/10 20/24/11 19/22/12
f 19/22/12 20/24/11 37/27/13 38/25/14
s 1
f 21/35/4 22/30/3 35/33/15 36/36/16
s 3
f 23/7/17 24/4/18 28/3/19 27/8/20
s off
f 24/4/21 23/7/22 26/14/23 25/12/24
s 4
f 25/12/25 26/14/26 30/15/27 29/13/28
s 3
f 27/8/20 28/3/19 31/6/29 32/9/30
s 4
f 29/13/28 30/15/27 34/18/31 33/16/32
s off
f 32/9/33 31/6/34 33/16/35 34/18/36
f 36/36/37 35/33/38 38/25/39 37/27/40
f 7/11/41 8/1/42 24/4/43 25/12/44
s 5
f 8/1/45 9/2/46 28/3/47 24/4/48
s 6
f 10/10/49 7/11/50 25/12/51 29/13/52
s off
f 4/20/53 3/28/54 16/31/55 17/21/56
s 7
f 6/19/57 4/20/58 17/21/59 19/22/60
s 8
f 3/28/61 5/29/62 22/30/63 16/31/64
s 9
f 3/93/65 4/94/66 26/14/67 23/7/68
f 5/96/69 3/93/65 23/7/68 27/8/70
f 4/94/66 6/95/71 30/15/72 26/14/67
s 10
f 2/99/73 1/100/74 20/24/75 18/23/76 15/34/77 21/35/78
s off
f 11/17/79 33/16/80 31/6/81 12/5/82
s 5
f 12/5/83 31/6/84 28/3/47 9/2/46
s 6
f 10/10/49 29/13/52 33/16/85 11/17/86
s off
f 13/26/87 38/25/88 35/33/89 14/32/90
s 7
f 6/19/57 19/22/60 38/25/91 13/26/92
s 8
f 14/32/93 35/33/94 22/30/63 5/29/62
s 9
f 14/98/95 32/9/96 34/18/97 13/97/98
f 5/96/69 27/8/70 32/9/96 14/98/95
f 13/97/98 34/18/97 30/15/72 6/95/71
s 10
f 2/99/73 21/35/78 36/36/99 37/27/100 20/24/75 1/100/74
s off
f 40/113/101 39/41/102 47/44/103 48/114/104
f 41/37/105 40/38/106 48/39/107 49/40/108
f 49/40/109 50/115/110 42/116/111 41/37/112
f 39/41/113 42/42/114 50/43/115 47/44/116
f 56/59/117 57/72/118 51/76/119 52/63/120
f 55/60/121 56/59/122 52/63/123 53/64/124
f 53/64/125 54/75/126 58/71/127 55/60/128
f 57/72/129 58/71/130 54/75/131 51/76/132
f 59/49/133 60/48/134 65/47/135 66/50/136
f 60/48/137 59/49/138 62/55/139 61/53/140
f 61/53/141 62/55/142 63/56/143 64/54/144
f 64/54/145 63/56/146 66/50/147 65/47/148
f 67/69/149 68/73/150 73/74/151 74/70/152
s 11
f 68/73/153 67/69/154 70/58/155 69/61/156
s off
f 69/61/157 70/58/158 72/57/159 71/62/160
s 11
f 71/62/161 72/57/162 74/70/163 73/74/164
s off
f 75/65/165 76/67/166 81/68/167 82/66/168
f 76/67/169 75/65/170 78/111/171 77/109/172
f 77/79/173 78/78/174 80/77/175 79/80/176
f 79/110/177 80/112/178 82/66/179 81/68/180
f 43/52/181 44/45/182 60/48/183 61/53/184
f 64/54/185 65/47/186 45/46/187 46/51/188
f 44/45/189 45/46/190 65/47/191 60/48/192
f 46/51/193 43/52/194 61/53/195 64/54/196
s 13
f 39/105/197 40/106/198 62/55/199 59/49/200
f 41/107/201 42/108/202 66/50/203 63/56/204
f 42/108/202 39/105/197 59/49/200 66/50/203
f 40/106/198 41/107/201 63/56/204 62/55/199
s 11
f 48/101/205 47/102/206 68/73/153 69/61/156
f 49/104/207 48/101/205 69/61/156 71/62/161
f 50/103/208 49/104/207 71/62/161 73/74/164
f 47/102/206 50/103/208 73/74/164 68/73/153
s off
f 76/67/209 77/109/210 79/110/211 81/68/212
f 72/57/213 70/58/214 56/59/215 55/60/216
s 11
f 70/58/155 67/69/154 57/72/217 56/59/218
s off
f 67/69/219 74/70/220 58/71/221 57/72/222
s 11
f 55/60/223 58/71/224 74/70/163 72/57/162
s off
f 52/63/225 51/117/226 78/111/227 75/65/228
f 51/76/229 54/75/230 80/77/231 78/78/232
f 54/118/233 53/64/234 82/66/235 80/112/236
f 53/64/237 52/63/238 75/65/239 82/66/240
f 87/89/241 88/91/242 91/92/243 92/90/244
f 88/91/245 87/89/246 90/84/247 89/85/248
f 89/85/249 90/84/250 94/83/251 93/86/252
f 92/90/253 91/92/254 93/86/255 94/83/256
f 83/88/257 84/81/258 90/84/259 87/89/260
f 88/91/261 89/85/262 93/86/263 91/92/264
f 92/90/265 94/83/266 86/82/267 85/87/268
f 84/81/269 86/82/270 94/83/271 90/84/272
f 85/87/273 83/88/274 87/89/275 92/90/276
