# This file uses meters as units for non-parametric coordinates.

mtllib hallconnect2.mtl
g default
v -50.000000 400.000172 109.018536
v -50.000000 400.000172 -1390.981921
v 450.000038 400.000172 -1390.981921
v 450.000038 400.000172 109.018536
v 700.000172 514.387074 109.018536
v 700.000172 514.387074 -1390.981921
v 616.666641 503.072300 109.018536
v 616.666641 503.072300 -1390.981921
v 533.333397 469.029102 109.018536
v 533.333397 469.029102 -1390.981921
v -50.000000 -99.999924 109.018536
v -50.000000 -99.999924 -1390.981921
v -50.000000 -99.999924 -890.981311
v -50.000000 400.000172 -890.981311
v 450.000038 400.000172 -890.981311
v 533.333397 469.029102 -890.981311
v 616.666641 503.072300 -890.981311
v 700.000172 514.387074 -890.981311
v -50.000000 -99.999924 -390.981616
v -50.000000 400.000172 -390.981616
v 450.000038 400.000172 -390.981616
v 533.333397 469.029102 -390.981616
v 616.666641 503.072300 -390.981616
v 700.000172 514.387074 -390.981616
v -50.000000 150.000124 -1390.981921
v -50.000000 150.000124 -890.981311
v -50.000000 150.000124 -390.981616
v -50.000000 150.000124 109.018536
v -250.000038 -99.999924 -390.981616
v -250.000038 150.000124 -390.981616
v -250.000038 -99.999924 -890.981311
v -250.000038 150.000124 -890.981311
v 700.000172 -99.999924 -1390.981921
v 700.000172 -99.999924 -890.981311
v 700.000172 -99.999924 -390.981616
v 700.000172 -99.999924 109.018536
v 950.000191 400.000172 109.018536
v 950.000191 400.000172 -390.981616
v 866.666775 469.029102 -390.981616
v 866.666775 469.029102 109.018536
v 1450.000343 400.000172 109.018536
v 1450.000343 400.000172 -390.981616
v 783.333530 503.072300 109.018536
v 783.333530 503.072300 -390.981616
v 1450.000343 150.000124 109.018536
v 1450.000343 -99.999924 109.018536
v 1450.000343 -99.999924 -390.981616
v 1450.000343 150.000124 -390.981616
v 1450.000343 150.000124 -890.981311
v 1450.000343 -99.999924 -890.981311
v 1450.000343 -99.999924 -1390.981921
v 1450.000343 150.000124 -1390.981921
v 950.000191 400.000172 -890.981311
v 1450.000343 400.000172 -890.981311
v 1450.000343 400.000172 -1390.981921
v 950.000191 400.000172 -1390.981921
v 866.666775 469.029102 -890.981311
v 866.666775 469.029102 -1390.981921
v 783.333530 503.072300 -890.981311
v 783.333530 503.072300 -1390.981921
v 1650.000496 -99.999924 -390.981616
v 1650.000496 150.000124 -390.981616
v 1650.000496 -99.999924 -890.981311
v 1650.000496 150.000124 -890.981311
vt 0.975272 0.819314
vt 0.567635 0.817479
vt 0.567384 0.789563
vt 0.975774 0.791401
vt 0.567074 0.769749
vt 0.976263 0.771590
vt 0.974177 0.978753
vt 0.567295 0.976920
vt 0.974872 0.744807
vt 0.564883 0.742962
vt 0.400456 0.027131
vt 0.021117 0.027131
vt 0.447816 0.212680
vt 0.446780 0.058991
vt 0.892705 0.054547
vt 0.893742 0.208237
vt 0.744063 0.056028
vt 0.147563 0.027131
vt 0.702922 0.977531
vt 0.745100 0.209718
vt 0.703514 0.818091
vt 0.703514 0.790175
vt 0.703470 0.770362
vt 0.701546 0.743577
vt 0.595421 0.057510
vt 0.274010 0.027131
vt 0.838549 0.978142
vt 0.596458 0.211199
vt 0.839393 0.818702
vt 0.839644 0.790788
vt 0.839867 0.770976
vt 0.838209 0.744192
vt 0.893223 0.131392
vt 0.744582 0.132873
vt 0.595940 0.134354
vt 0.447298 0.135835
vt 0.883651 0.286721
vt 0.756109 0.286709
vt 0.756109 0.226374
vt 0.883651 0.226532
vt 0.666949 0.286707
vt 0.538191 0.286719
vt 0.538192 0.226173
vt 0.666949 0.226187
vt 0.971884 0.286719
vt 0.971884 0.226514
vt 0.021117 0.250101
vt 0.147564 0.250101
vt 0.274010 0.250101
vt 0.400456 0.250101
vt 0.975942 0.670306
vt 0.840063 0.669695
vt 0.840063 0.697611
vt 0.976193 0.698223
vt 0.976282 0.510865
vt 0.840654 0.510255
vt 0.976504 0.718037
vt 0.840108 0.717424
vt 0.478809 0.897753
vt 0.479327 0.820908
vt 0.330685 0.819427
vt 0.330167 0.896272
vt 0.181525 0.894791
vt 0.182044 0.817946
vt 0.033402 0.816465
vt 0.032883 0.893309
vt 0.704185 0.669085
vt 0.705027 0.509645
vt 0.569400 0.509036
vt 0.568306 0.668474
vt 0.703933 0.696999
vt 0.567803 0.696387
vt 0.703711 0.716810
vt 0.567315 0.716197
vt 0.181007 0.971635
vt 0.032365 0.970154
vt 0.329649 0.973116
vt 0.478291 0.974597
vt 0.037940 0.726327
vt 0.126173 0.726328
vt 0.126173 0.666139
vt 0.037940 0.666121
vt 0.253715 0.726316
vt 0.253715 0.665982
vt 0.342875 0.726315
vt 0.342875 0.665794
vt 0.471633 0.726326
vt 0.471632 0.665781
vt 0.147564 0.473072
vt 0.021117 0.473072
vt 0.274010 0.473072
vt 0.400456 0.473071
vn 0.117515 -0.993071 0.000000
vn 0.117515 -0.993071 0.000000
vn 0.525977 -0.850499 0.000000
vn 0.525977 -0.850499 0.000000
vn 0.000000 -1.000000 0.000000
vn 0.000000 -1.000000 0.000000
vn 0.262597 -0.964906 0.000000
vn 0.262597 -0.964906 0.000000
vn 0.134542 -0.990908 0.000000
vn 0.134542 -0.990908 0.000000
vn 1.000000 0.000000 0.000000
vn 1.000000 0.000000 0.000000
vn 1.000000 0.000000 0.000000
vn 1.000000 0.000000 0.000000
vn 1.000000 0.000000 0.000000
vn 1.000000 0.000000 0.000000
vn 1.000000 0.000000 0.000000
vn 1.000000 0.000000 0.000000
vn 0.117515 -0.993071 0.000000
vn 0.000000 -1.000000 0.000000
vn 0.000000 -1.000000 0.000000
vn 0.117515 -0.993071 0.000000
vn 0.525977 -0.850499 0.000000
vn 0.525977 -0.850499 0.000000
vn 0.262597 -0.964906 0.000000
vn 0.262597 -0.964906 0.000000
vn 0.134542 -0.990908 0.000000
vn 0.134542 -0.990908 0.000000
vn 1.000000 0.000000 0.000000
vn 1.000000 0.000000 0.000000
vn 1.000000 0.000000 0.000000
vn 1.000000 0.000000 0.000000
vn 0.000000 0.000000 -1.000000
vn 0.000000 0.000000 -1.000000
vn 0.000000 0.000000 -1.000000
vn 0.000000 0.000000 -1.000000
vn 0.000000 1.000000 0.000000
vn 0.000000 1.000000 0.000000
vn 0.000000 1.000000 0.000000
vn 0.000000 1.000000 0.000000
vn 0.000000 0.000000 1.000000
vn 0.000000 0.000000 1.000000
vn 0.000000 0.000000 1.000000
vn 0.000000 0.000000 1.000000
vn 0.000000 -1.000000 0.000000
vn 0.000000 -1.000000 0.000000
vn 0.000000 -1.000000 0.000000
vn 0.000000 -1.000000 0.000000
vn 0.000000 1.000000 0.000000
vn 0.000000 1.000000 0.000000
vn 0.000000 1.000000 0.000000
vn 0.000000 1.000000 0.000000
vn 0.000000 1.000000 0.000000
vn 0.000000 1.000000 0.000000
vn -0.117515 -0.993071 0.000000
vn -0.525977 -0.850499 0.000000
vn -0.525976 -0.850499 0.000000
vn -0.117515 -0.993071 0.000000
vn 0.000000 -1.000000 0.000000
vn 0.000000 -1.000000 0.000000
vn -0.262597 -0.964906 0.000000
vn -0.134543 -0.990908 0.000000
vn -0.134543 -0.990908 0.000000
vn -0.262597 -0.964906 0.000000
vn -1.000000 0.000000 0.000000
vn -1.000000 0.000000 0.000000
vn -1.000000 0.000000 0.000000
vn -1.000000 0.000000 0.000000
vn -1.000000 0.000000 0.000000
vn -1.000000 0.000000 0.000000
vn -1.000000 0.000000 0.000000
vn -1.000000 0.000000 0.000000
vn -0.117515 -0.993071 0.000000
vn -0.117515 -0.993071 0.000000
vn 0.000000 -1.000000 0.000000
vn 0.000000 -1.000000 0.000000
vn -0.525976 -0.850499 0.000000
vn -0.525976 -0.850499 0.000000
vn -0.262597 -0.964906 0.000000
vn -0.262597 -0.964906 0.000000
vn -0.134543 -0.990908 0.000000
vn -0.134543 -0.990908 0.000000
vn -1.000000 0.000000 0.000000
vn -1.000000 0.000000 0.000000
vn -1.000000 0.000000 0.000000
vn -1.000000 0.000000 0.000000
vn 0.000000 0.000000 -1.000000
vn 0.000000 0.000000 -1.000000
vn 0.000000 0.000000 -1.000000
vn 0.000000 0.000000 -1.000000
vn 0.000000 1.000000 0.000000
vn 0.000000 1.000000 0.000000
vn 0.000000 1.000000 0.000000
vn 0.000000 1.000000 0.000000
vn 0.000000 0.000000 1.000000
vn 0.000000 0.000000 1.000000
vn 0.000000 0.000000 1.000000
vn 0.000000 0.000000 1.000000
vn 0.000000 -1.000000 0.000000
vn 0.000000 -1.000000 0.000000
vn 0.000000 -1.000000 0.000000
vn 0.000000 -1.000000 0.000000
vn 0.000000 1.000000 0.000000
vn 0.000000 1.000000 0.000000
vn 0.000000 1.000000 0.000000
vn 0.000000 1.000000 0.000000
vn 0.000000 1.000000 0.000000
vn 0.000000 1.000000 0.000000
s 1
g pPlane7
usemtl phongE1SG
f 4/1/1 21/29/2 22/30/3 9/4/4
f 1/7/5 20/27/6 21/29/2 4/1/1
f 7/6/7 23/31/8 24/32/9 5/9/10
f 9/4/4 22/30/3 23/31/8 7/6/7
s 2
f 28/36/11 11/14/12 19/25/13 27/35/14
f 26/34/15 13/17/16 12/15/17 25/33/18
s 1
f 15/21/19 14/19/20 2/8/21 3/2/22
f 16/22/23 15/21/19 3/2/22 10/3/24
f 17/23/25 16/22/23 10/3/24 8/5/26
f 18/24/27 17/23/25 8/5/26 6/10/28
f 21/29/2 20/27/6 14/19/20 15/21/19
f 22/30/3 21/29/2 15/21/19 16/22/23
f 23/31/8 22/30/3 16/22/23 17/23/25
f 24/32/9 23/31/8 17/23/25 18/24/27
s 2
f 14/20/29 26/34/15 25/33/18 2/16/30
f 20/28/31 27/35/14 26/34/15 14/20/29
f 1/13/32 28/36/11 27/35/14 20/28/31
s off
f 27/45/33 19/37/34 29/40/35 30/46/36
s 4
f 19/37/37 13/38/38 31/39/39 29/40/40
s off
f 13/38/41 26/41/42 32/44/43 31/39/44
f 26/41/45 27/42/46 30/43/47 32/44/48
s 4
f 13/18/38 34/48/49 33/47/50 12/12/51
f 19/26/37 35/49/52 34/48/49 13/18/38
f 11/11/53 36/50/54 35/49/52 19/26/37
s 5
f 37/51/55 40/54/56 39/53/57 38/52/58
f 41/55/59 37/51/55 38/52/58 42/56/60
f 43/57/61 5/9/62 24/32/63 44/58/64
f 40/54/56 43/57/61 44/58/64 39/53/57
s 7
f 45/59/65 48/62/66 47/61/67 46/60/68
f 49/63/69 52/66/70 51/65/71 50/64/72
s 5
f 53/67/73 56/70/74 55/69/75 54/68/76
f 57/71/77 58/72/78 56/70/74 53/67/73
f 59/73/79 60/74/80 58/72/78 57/71/77
f 18/24/81 6/10/82 60/74/80 59/73/79
f 38/52/58 53/67/73 54/68/76 42/56/60
f 39/53/57 57/71/77 53/67/73 38/52/58
f 44/58/64 59/73/79 57/71/77 39/53/57
f 24/32/63 18/24/81 59/73/79 44/58/64
s 7
f 54/75/83 55/76/84 52/66/70 49/63/69
f 42/77/85 54/75/83 49/63/69 48/62/66
f 41/78/86 42/77/85 48/62/66 45/59/65
s off
f 48/79/87 62/82/88 61/81/89 47/80/90
s 10
f 47/80/91 61/81/92 63/84/93 50/83/94
s off
f 50/83/95 63/84/96 64/86/97 49/85/98
f 49/85/99 64/86/100 62/88/101 48/87/102
s 10
f 50/89/94 51/90/103 33/47/104 34/48/105
f 47/91/91 50/89/94 34/48/105 35/49/106
f 46/92/107 47/91/91 35/49/106 36/50/108
