# This file uses meters as units for non-parametric coordinates.

mtllib hallthreeway.mtl
g default
v -50.000000 400.000000 109.018994
v 1450.000000 400.000000 109.018994
v -50.000000 400.000000 -1390.981006
v 1450.000000 400.000000 -1390.981006
v 950.000076 400.000000 -1390.981006
v 950.000076 400.000000 109.018994
v 450.000038 400.000000 -1390.981006
v 450.000038 400.000000 109.018994
v 866.666660 469.028931 109.018994
v 866.666660 469.028931 -1390.981006
v 783.333302 503.072243 109.018994
v 783.333302 503.072243 -1390.981006
v 700.000000 514.386902 109.018994
v 700.000000 514.386902 -1390.981006
v 616.666641 503.072243 109.018994
v 616.666641 503.072243 -1390.981006
v 533.333397 469.028916 109.018994
v 533.333397 469.028916 -1390.981006
v -50.000000 -99.999924 109.018994
v -50.000000 -99.999924 -1390.981006
v 1450.000000 -99.999924 109.018994
v 1450.000000 -99.999924 -1390.981006
v -50.000000 400.000000 -890.980968
v 450.000038 400.000000 -890.980968
v 533.333397 469.028916 -890.980968
v 616.666641 503.072243 -890.980968
v 700.000000 514.386902 -890.980968
v 783.333302 503.072243 -890.980968
v 866.666660 469.028931 -890.980968
v 950.000076 400.000000 -890.980968
v 1450.000000 400.000000 -890.980968
v 1450.000000 -99.999924 -890.980968
v -50.000000 -99.999924 -890.980968
v -50.000000 400.000000 -390.980987
v 450.000038 400.000000 -390.980987
v 533.333397 469.028916 -390.980987
v 616.666641 503.072243 -390.980987
v 700.000000 514.386902 -390.980987
v 783.333302 503.072243 -390.980987
v 866.666660 469.028931 -390.980987
v 950.000076 400.000000 -390.980987
v 1450.000000 400.000000 -390.980987
v 1450.000000 -99.999924 -390.980987
v -50.000000 -99.999924 -390.980987
v 450.000038 443.683150 -474.314331
v -50.000000 468.835540 -474.314331
v -50.000000 -99.999924 -474.314331
v 1450.000000 -99.999924 -474.314331
v 1450.000000 400.000000 -474.314331
v 950.000076 400.000000 -474.314331
v 866.666660 469.028931 -474.314331
v 783.333302 503.072243 -474.314331
v 700.000000 514.386902 -474.314331
v 616.666641 503.072243 -474.314331
v 533.333397 466.324170 -474.314331
v 450.000038 484.266782 -557.647654
v -50.000000 503.904243 -557.647654
v -50.000000 -99.999924 -557.647654
v 1450.000000 -99.999924 -557.647654
v 1450.000000 400.000000 -557.647654
v 950.000076 400.000000 -557.647654
v 866.666660 469.028931 -557.647654
v 783.333302 503.072243 -557.647654
v 700.000000 514.386902 -557.647654
v 616.666641 503.072243 -557.647654
v 533.333397 491.298282 -557.647654
v 450.000038 503.592055 -640.980984
v -50.000000 514.152863 -640.980984
v -50.000000 -99.999924 -640.980984
v 1450.000000 -99.999924 -640.980984
v 1450.000000 400.000000 -640.980984
v 950.000076 400.000000 -640.980984
v 866.666660 469.028931 -640.980984
v 783.333302 503.072243 -640.980984
v 700.000000 514.386902 -640.980984
v 616.666641 503.072243 -640.980984
v 533.333397 496.442852 -640.980984
v 450.000038 484.266782 -724.314322
v -50.000000 503.904243 -724.314322
v -50.000000 -99.999924 -724.314322
v 1450.000000 -99.999924 -724.314322
v 1450.000000 400.000000 -724.314322
v 950.000076 400.000000 -724.314322
v 866.666660 469.028931 -724.314322
v 783.333302 503.072243 -724.314322
v 700.000000 514.386902 -724.314322
v 616.666641 503.072243 -724.314322
v 533.333397 491.298282 -724.314322
v 450.000038 443.683150 -807.647638
v -50.000000 468.835540 -807.647638
v -50.000000 -99.999924 -807.647638
v 1450.000000 -99.999924 -807.647638
v 1450.000000 400.000000 -807.647638
v 950.000076 400.000000 -807.647638
v 866.666660 469.028931 -807.647638
v 783.333302 503.072243 -807.647638
v 700.000000 514.386902 -807.647638
v 616.666641 503.072243 -807.647638
v 533.333397 466.324170 -807.335142
vt 0.822896 0.975945
vt 0.789205 0.975945
vt 0.789205 0.796459
vt 0.823006 0.796220
vt 0.756099 0.975945
vt 0.756099 0.796459
vt 0.809885 0.766745
vt 0.784932 0.766545
vt 0.975575 0.975945
vt 0.975495 0.796331
vt 0.727006 0.975945
vt 0.727006 0.796459
vt 0.754772 0.766545
vt 0.803444 0.736630
vt 0.777997 0.736631
vt 0.705014 0.975570
vt 0.705566 0.796055
vt 0.728355 0.766545
vt 0.752550 0.736631
vt 0.962374 0.766751
vt 0.956123 0.736631
vt 0.801308 0.706716
vt 0.775862 0.706716
vt 0.703513 0.766824
vt 0.727104 0.736631
vt 0.750415 0.706716
vt 0.953988 0.706716
vt 0.803444 0.676802
vt 0.777997 0.676802
vt 0.701657 0.736631
vt 0.724968 0.706716
vt 0.752550 0.676802
vt 0.956123 0.676802
vt 0.809976 0.646888
vt 0.784493 0.646888
vt 0.683249 0.766775
vt 0.676211 0.736631
vt 0.699522 0.706716
vt 0.727104 0.676802
vt 0.759011 0.646888
vt 0.962871 0.646887
vt 0.657179 0.767254
vt 0.650764 0.736631
vt 0.674075 0.706716
vt 0.701657 0.676802
vt 0.733528 0.646888
vt 0.505022 0.766835
vt 0.498085 0.736631
vt 0.648629 0.706716
vt 0.676211 0.676802
vt 0.708046 0.646888
vt 0.495949 0.706716
vt 0.650764 0.676802
vt 0.682564 0.646888
vt 0.498085 0.676802
vt 0.657081 0.646888
vt 0.504186 0.646888
vt 0.678051 0.975062
vt 0.644105 0.974893
vt 0.644952 0.794745
vt 0.678947 0.795516
vt 0.506621 0.974166
vt 0.507500 0.794445
vt 0.810543 0.615491
vt 0.964573 0.615490
vt 0.784872 0.615491
vt 0.759200 0.615491
vt 0.733528 0.615491
vt 0.707857 0.615491
vt 0.682185 0.615491
vt 0.656514 0.615491
vt 0.502484 0.615491
vt 0.811003 0.433337
vt 0.965952 0.433337
vt 0.785178 0.433337
vt 0.759353 0.433337
vt 0.733528 0.433337
vt 0.707703 0.433337
vt 0.681879 0.433337
vt 0.656054 0.433337
vt 0.501105 0.433338
vt 0.466432 0.030344
vt 0.466608 0.495560
vt 0.320106 0.495647
vt 0.319863 0.030431
vt 0.296454 0.636406
vt 0.295435 0.030446
vt 0.271460 0.636426
vt 0.271007 0.030460
vt 0.246466 0.636446
vt 0.246579 0.030475
vt 0.221472 0.636466
vt 0.222151 0.030489
vt 0.196478 0.636486
vt 0.197723 0.030504
vt 0.173604 0.495734
vt 0.173294 0.030518
vt 0.021518 0.636627
vt 0.026726 0.030605
vt 0.321482 0.791560
vt 0.471380 0.791440
vt 0.296500 0.791580
vt 0.271517 0.791600
vt 0.246534 0.791620
vt 0.221551 0.791640
vt 0.196568 0.791660
vt 0.171585 0.791680
vt 0.021688 0.791800
vt 0.198021 0.495719
vt 0.171483 0.636506
vt 0.222438 0.495705
vt 0.246855 0.495691
vt 0.271272 0.495676
vt 0.295689 0.495662
vt 0.027101 0.495821
vt 0.471414 0.636266
vt 0.321448 0.636386
vn -0.117515 -0.993071 0.000000
vn -0.117515 -0.993071 0.000000
vn 0.000000 -1.000000 0.000000
vn 0.000000 -1.000000 0.000000
vn 0.117515 -0.993071 0.000000
vn 0.106827 -0.990531 -0.086240
vn 0.514233 -0.857538 -0.013865
vn 0.525977 -0.850499 0.000000
vn 0.000000 -1.000000 0.000000
vn -0.003577 -0.995375 -0.095999
vn -0.525977 -0.850499 0.000000
vn -0.525977 -0.850499 0.000000
vn -0.262597 -0.964906 0.000000
vn -0.262597 -0.964906 0.000000
vn 0.000000 -1.000000 0.000000
vn -0.000000 -1.000000 0.000000
vn 0.262597 -0.964906 0.000000
vn 0.263638 -0.964621 0.001118
vn -1.000000 0.000000 0.000000
vn -1.000000 0.000000 0.000000
vn -1.000000 0.000000 0.000000
vn -1.000000 0.000000 0.000000
vn 0.000000 1.000000 0.000000
vn 0.000000 1.000000 0.000000
vn 0.000000 1.000000 0.000000
vn 0.000000 1.000000 0.000000
vn -0.003577 -0.995375 0.095999
vn 0.000000 -1.000000 0.000000
vn 0.117515 -0.993071 0.000000
vn 0.106833 -0.990530 0.086237
vn 0.514192 -0.857563 0.013863
vn 0.525977 -0.850499 0.000000
vn 0.263654 -0.964617 -0.001118
vn 0.262597 -0.964906 0.000000
vn -0.000000 -1.000000 0.000000
vn -0.000000 -1.000000 0.000000
vn -0.262597 -0.964906 0.000000
vn -0.262597 -0.964906 0.000000
vn -0.525977 -0.850499 0.000000
vn -0.525977 -0.850499 0.000000
vn -0.117515 -0.993071 0.000000
vn -0.117515 -0.993071 0.000000
vn 0.000000 -1.000000 0.000000
vn 0.000000 -1.000000 0.000000
vn -1.000000 0.000000 0.000000
vn -1.000000 0.000000 0.000000
vn -1.000000 0.000000 0.000000
vn -1.000000 0.000000 0.000000
vn 0.000000 1.000000 0.000000
vn 0.000000 1.000000 0.000000
vn 0.000000 1.000000 0.000000
vn 0.000000 1.000000 0.000000
vn -0.030604 -0.871095 0.490159
vn 0.021438 -0.883365 0.468195
vn 0.332956 -0.925139 0.182368
vn 0.239720 -0.970304 0.032324
vn -0.000000 -1.000000 0.000000
vn -0.262597 -0.964906 0.000000
vn -0.525977 -0.850499 0.000000
vn -0.117515 -0.993071 0.000000
vn 0.000000 -1.000000 0.000000
vn -1.000000 0.000000 0.000000
vn -1.000000 0.000000 0.000000
vn 0.000000 1.000000 0.000000
vn 0.000000 1.000000 0.000000
vn -0.030604 -0.871095 -0.490159
vn 0.021414 -0.883354 -0.468217
vn 0.000000 1.000000 0.000000
vn 0.000000 1.000000 0.000000
vn -1.000000 0.000000 0.000000
vn -1.000000 0.000000 0.000000
vn -0.117515 -0.993071 0.000000
vn 0.000000 -1.000000 0.000000
vn -0.525977 -0.850499 0.000000
vn -0.262597 -0.964906 0.000000
vn -0.000000 -1.000000 0.000000
vn 0.239538 -0.970346 -0.032413
vn 0.333213 -0.925082 -0.182189
vn -0.035697 -0.953247 -0.300077
vn -0.018382 -0.954877 -0.296432
vn 0.000000 1.000000 0.000000
vn 0.000000 1.000000 0.000000
vn -1.000000 0.000000 0.000000
vn -1.000000 0.000000 0.000000
vn -0.117515 -0.993071 0.000000
vn 0.000000 -1.000000 0.000000
vn -0.525977 -0.850499 0.000000
vn -0.262597 -0.964906 0.000000
vn -0.000000 -1.000000 0.000000
vn 0.165779 -0.985158 -0.044507
vn 0.141724 -0.974353 -0.174785
vn -0.030185 -0.999544 0.000000
vn -0.026032 -0.999661 0.000000
vn 0.000000 1.000000 0.000000
vn 0.000000 1.000000 0.000000
vn -1.000000 0.000000 0.000000
vn -1.000000 0.000000 0.000000
vn -0.117515 -0.993071 0.000000
vn 0.000000 -1.000000 0.000000
vn -0.525977 -0.850499 0.000000
vn -0.262597 -0.964906 0.000000
vn -0.000000 -1.000000 0.000000
vn 0.122176 -0.992508 0.000000
vn 0.054768 -0.998499 -0.000000
vn -0.035697 -0.953247 0.300077
vn -0.018459 -0.954864 0.296468
vn 0.000000 1.000000 0.000000
vn 0.000000 1.000000 0.000000
vn -1.000000 0.000000 0.000000
vn -1.000000 0.000000 0.000000
vn -0.117515 -0.993071 0.000000
vn 0.000000 -1.000000 0.000000
vn -0.525977 -0.850499 0.000000
vn -0.262597 -0.964906 0.000000
vn -0.000000 -1.000000 0.000000
vn 0.165791 -0.985155 0.044528
vn 0.141537 -0.974352 0.174946
s 1
g pPlane4
usemtl phongE1SG
f 6/65/1 41/64/2 42/73/3 2/74/4
f 8/10/5 35/4/6 36/7/7 17/20/8
f 1/9/9 34/1/10 35/4/6 8/10/5
f 9/41/11 40/34/12 41/64/2 6/65/1
f 11/33/13 39/28/14 40/34/12 9/41/11
f 13/27/15 38/22/16 39/28/14 11/33/13
f 15/21/17 37/14/18 38/22/16 13/27/15
f 17/20/8 36/7/7 37/14/18 15/21/17
s 3
f 42/100/19 43/117/20 21/116/21 2/101/22
s 4
f 19/82/23 21/83/24 43/84/25 44/85/26
s 1
f 23/59/27 3/62/28 7/63/29 24/60/30
f 25/42/31 24/60/30 7/63/29 18/47/32
f 26/43/33 25/42/31 18/47/32 16/48/34
f 27/49/35 26/43/33 16/48/34 14/52/36
f 28/53/37 27/49/35 14/52/36 12/55/38
f 29/56/39 28/53/37 12/55/38 10/57/40
f 30/71/41 29/56/39 10/57/40 5/72/42
f 31/80/43 30/71/41 5/72/42 4/81/44
s 3
f 4/108/45 22/98/46 32/110/47 31/107/48
s 4
f 33/97/49 32/96/50 22/115/51 20/99/52
s 1
f 90/58/53 23/59/27 24/60/30 89/61/54
f 99/36/55 89/61/54 24/60/30 25/42/31
f 98/37/56 99/36/55 25/42/31 26/43/33
f 97/44/57 98/37/56 26/43/33 27/49/35
f 96/50/58 97/44/57 27/49/35 28/53/37
f 95/54/59 96/50/58 28/53/37 29/56/39
f 94/70/60 95/54/59 29/56/39 30/71/41
f 93/79/61 94/70/60 30/71/41 31/80/43
s 3
f 31/107/48 32/110/47 92/94/62 93/106/63
s 4
f 91/95/64 92/109/65 32/96/50 33/97/49
s 1
f 34/1/10 46/2/66 45/3/67 35/4/6
s 4
f 44/85/26 43/84/25 48/114/68 47/87/69
s 3
f 49/102/70 48/86/71 43/117/20 42/100/19
s 1
f 42/73/3 41/64/2 50/66/72 49/75/73
f 41/64/2 40/34/12 51/35/74 50/66/72
f 40/34/12 39/28/14 52/29/75 51/35/74
f 39/28/14 38/22/16 53/23/76 52/29/75
f 38/22/16 37/14/18 54/15/77 53/23/76
f 37/14/18 36/7/7 55/8/78 54/15/77
f 36/7/7 35/4/6 45/3/67 55/8/78
f 46/2/66 57/5/79 56/6/80 45/3/67
s 4
f 47/87/69 48/114/68 59/113/81 58/89/82
s 3
f 60/103/83 59/88/84 48/86/71 49/102/70
s 1
f 49/75/73 50/66/72 61/67/85 60/76/86
f 50/66/72 51/35/74 62/40/87 61/67/85
f 51/35/74 52/29/75 63/32/88 62/40/87
f 52/29/75 53/23/76 64/26/89 63/32/88
f 53/23/76 54/15/77 65/19/90 64/26/89
f 54/15/77 55/8/78 66/13/91 65/19/90
f 55/8/78 45/3/67 56/6/80 66/13/91
f 57/5/79 68/11/92 67/12/93 56/6/80
s 4
f 58/89/82 59/113/81 70/112/94 69/91/95
s 3
f 71/104/96 70/90/97 59/88/84 60/103/83
s 1
f 60/76/86 61/67/85 72/68/98 71/77/99
f 61/67/85 62/40/87 73/46/100 72/68/98
f 62/40/87 63/32/88 74/39/101 73/46/100
f 63/32/88 64/26/89 75/31/102 74/39/101
f 64/26/89 65/19/90 76/25/103 75/31/102
f 65/19/90 66/13/91 77/18/104 76/25/103
f 66/13/91 56/6/80 67/12/93 77/18/104
f 68/11/92 79/16/105 78/17/106 67/12/93
s 4
f 69/91/95 70/112/94 81/111/107 80/93/108
s 3
f 82/105/109 81/92/110 70/90/97 71/104/96
s 1
f 71/77/99 72/68/98 83/69/111 82/78/112
f 72/68/98 73/46/100 84/51/113 83/69/111
f 73/46/100 74/39/101 85/45/114 84/51/113
f 74/39/101 75/31/102 86/38/115 85/45/114
f 75/31/102 76/25/103 87/30/116 86/38/115
f 76/25/103 77/18/104 88/24/117 87/30/116
f 77/18/104 67/12/93 78/17/106 88/24/117
f 79/16/105 90/58/53 89/61/54 78/17/106
s 4
f 80/93/108 81/111/107 92/109/65 91/95/64
s 3
f 93/106/63 92/94/62 81/92/110 82/105/109
s 1
f 82/78/112 83/69/111 94/70/60 93/79/61
f 83/69/111 84/51/113 95/54/59 94/70/60
f 84/51/113 85/45/114 96/50/58 95/54/59
f 85/45/114 86/38/115 97/44/57 96/50/58
f 86/38/115 87/30/116 98/37/56 97/44/57
f 87/30/116 88/24/117 99/36/55 98/37/56
f 88/24/117 78/17/106 89/61/54 99/36/55
