# This file uses meters as units for non-parametric coordinates.

mtllib halldeadend.mtl
g default
v -50.000000 400.000172 109.019910
v -50.000000 400.000172 -1390.980548
v 450.000038 400.000172 -1390.980548
v 450.000038 400.000172 109.019910
v 700.000172 400.000343 109.019910
v 700.000172 514.387074 -1390.980548
v 616.666641 400.000172 109.019910
v 616.666641 503.072300 -1390.980548
v 533.333397 399.999886 109.019910
v 533.333397 469.029102 -1390.980548
v -50.000000 -99.999924 109.019910
v -50.000000 -99.999924 -1390.980548
v -50.000000 400.000172 -890.980624
v 450.000038 400.000172 -890.980624
v 533.333397 469.029102 -890.980624
v 616.666641 503.072300 -890.980624
v 700.000172 514.387074 -890.980624
v -50.000000 -99.999924 -890.980624
v -50.000000 400.000172 -390.980701
v 450.000038 399.999542 -390.980701
v 533.333397 399.999828 -390.980701
v 616.666641 400.000172 -390.980701
v 700.000172 400.000286 -390.980701
v -50.000000 -99.999924 -390.980701
v 450.000038 400.000000 -474.313373
v -50.000000 399.999771 -474.313373
v -50.000000 -100.000095 -474.313373
v 700.000172 451.365032 -474.313373
v 616.666641 443.348618 -474.313373
v 533.333397 428.256493 -474.313373
v 450.000038 400.000401 -557.647647
v -50.000000 400.000172 -557.647647
v -50.000000 -99.999924 -557.647647
v 700.000172 493.126812 -557.647647
v 616.666641 481.812038 -557.647647
v 533.333397 467.347908 -557.647647
v 450.000038 400.000572 -640.980319
v -50.000000 400.000343 -640.980319
v -50.000000 -99.999809 -640.980319
v 700.000172 505.217323 -640.980319
v 616.666641 493.902664 -640.980319
v 533.333397 467.347965 -640.980319
v 450.000038 400.000401 -724.313907
v -50.000000 400.000172 -724.313907
v -50.000000 -99.999924 -724.313907
v 700.000172 514.387074 -724.313907
v 616.666641 503.072300 -724.313907
v 533.333397 467.347908 -724.313907
v 450.000038 400.000000 -807.647266
v -50.000000 399.999771 -807.647266
v -50.000000 -100.000095 -807.647266
v 700.000172 514.387074 -807.647266
v 616.666641 503.072300 -807.647266
v 533.333397 466.324348 -807.334613
v 700.000172 -99.999809 109.019910
v 700.000172 -99.999924 -390.980701
v 700.000172 -99.999924 -474.313373
v 700.000172 -99.999924 -557.647647
v 700.000172 -99.999924 -640.980319
v 700.000172 -99.999924 -724.313907
v 700.000172 -99.999924 -807.647266
v 700.000172 -99.999924 -890.980624
v 700.000172 -99.999924 -1390.980548
v 950.000076 400.000172 109.019910
v 950.000076 400.000172 -390.980701
v 866.666660 399.999828 -390.980701
v 866.666660 399.999886 109.019910
v 1450.000343 400.000172 109.019910
v 1450.000343 400.000172 -390.980701
v 783.333530 400.000172 109.019910
v 783.333530 400.000172 -390.980701
v 1450.000343 -99.999924 109.019910
v 1450.000343 -99.999924 -390.980701
v 1450.000343 400.000172 -890.980624
v 1450.000343 400.000172 -1390.980548
v 950.000076 400.000172 -1390.980548
v 950.000076 400.000172 -890.980624
v 866.666660 469.029102 -890.980624
v 866.666660 469.029102 -1390.980548
v 783.333530 503.072300 -890.980624
v 783.333530 503.072300 -1390.980548
v 1450.000343 -99.999924 -890.980624
v 1450.000343 -99.999924 -1390.980548
v 1450.000343 399.999714 -807.647266
v 950.000076 396.831532 -807.647266
v 866.666660 466.324348 -807.334613
v 783.333530 503.072300 -807.647266
v 1450.000343 -100.000095 -807.647266
v 1450.000343 399.999714 -474.313373
v 950.000076 396.831532 -474.313373
v 1450.000343 -100.000095 -474.313373
v 783.333530 443.348618 -474.313373
v 866.666660 428.256493 -474.313373
v 1450.000343 400.000172 -557.647647
v 950.000076 403.168354 -557.647647
v 1450.000343 -99.999924 -557.647647
v 783.333530 481.812038 -557.647647
v 866.666660 466.349125 -557.647647
v 1450.000343 400.000343 -640.980319
v 950.000076 403.168583 -640.980319
v 1450.000343 -99.999809 -640.980319
v 783.333530 493.902664 -640.980319
v 866.666660 466.349182 -640.980319
v 1450.000343 400.000172 -724.313907
v 950.000076 403.168354 -724.313907
v 1450.000343 -99.999924 -724.313907
v 783.333530 503.072300 -724.313907
v 866.666660 466.349125 -724.313907
v 449.977093 -99.999809 109.019910
v 533.037910 -99.999981 109.019910
v 616.176777 -99.999809 109.019910
v 950.016127 -99.999809 109.019910
v 866.196852 -99.999981 109.019910
v 783.071804 -99.999809 109.019910
v 782.810092 -99.999924 -390.980701
v 782.810085 -99.999924 -474.313373
v 782.810085 -99.999924 -557.647647
v 782.810085 -99.999924 -640.980319
v 782.810085 -99.999924 -724.313907
v 782.810085 -99.999924 -807.647266
v 782.810092 -99.999924 -890.980624
v 782.810085 -99.999924 -1390.980548
v 865.727043 -99.999924 -390.980701
v 865.727043 -99.999924 -474.313373
v 865.727043 -99.999924 -557.647647
v 865.727043 -99.999924 -640.980319
v 865.727043 -99.999924 -724.313907
v 865.727043 -99.999924 -807.647266
v 865.727043 -99.999924 -890.980624
v 865.727043 -99.999924 -1390.980548
v 950.032177 -99.999924 -390.980701
v 950.032177 -99.999924 -474.313373
v 950.032177 -99.999924 -557.647647
v 950.032177 -99.999924 -640.980319
v 950.032177 -99.999924 -724.313907
v 950.032177 -99.999924 -807.647266
v 950.032177 -99.999924 -890.980624
v 950.032177 -99.999924 -1390.980548
v 449.954119 -99.999924 -1390.980548
v 449.954119 -99.999924 -890.980624
v 449.954119 -99.999981 -807.647266
v 449.954119 -99.999924 -724.313907
v 449.954119 -99.999866 -640.980319
v 449.954119 -99.999924 -557.647647
v 449.954119 -99.999981 -474.313373
v 449.954119 -99.999924 -390.980701
v 532.742424 -99.999924 -1390.980548
v 532.742424 -99.999924 -890.980624
v 532.742424 -99.999981 -807.647266
v 532.742424 -99.999924 -724.313907
v 532.742424 -99.999866 -640.980319
v 532.742424 -99.999924 -557.647647
v 532.742424 -99.999981 -474.313373
v 532.742424 -99.999924 -390.980701
v 615.686905 -99.999924 -1390.980548
v 615.686905 -99.999924 -890.980624
v 615.686905 -99.999924 -807.647266
v 615.686905 -99.999924 -724.313907
v 615.686905 -99.999924 -640.980319
v 615.686905 -99.999924 -557.647647
v 615.686905 -99.999924 -474.313373
v 615.686905 -99.999924 -390.980701
vt 0.822896 0.975945
vt 0.789205 0.975945
vt 0.789205 0.796459
vt 0.823006 0.796220
vt 0.756099 0.975945
vt 0.756099 0.796459
vt 0.809885 0.766745
vt 0.784932 0.766545
vt 0.975575 0.975945
vt 0.975495 0.796331
vt 0.727006 0.975945
vt 0.727006 0.796459
vt 0.754772 0.766545
vt 0.803444 0.736630
vt 0.777997 0.736631
vt 0.705014 0.975570
vt 0.705566 0.796055
vt 0.728355 0.766545
vt 0.752550 0.736631
vt 0.962374 0.766751
vt 0.956123 0.736631
vt 0.801308 0.706716
vt 0.775862 0.706716
vt 0.703513 0.766824
vt 0.727104 0.736631
vt 0.750415 0.706716
vt 0.953988 0.706716
vt 0.701657 0.736631
vt 0.724968 0.706716
vt 0.683249 0.766775
vt 0.676211 0.736631
vt 0.699522 0.706716
vt 0.657179 0.767254
vt 0.650764 0.736631
vt 0.674075 0.706716
vt 0.505022 0.766835
vt 0.498085 0.736631
vt 0.648629 0.706716
vt 0.495949 0.706716
vt 0.678051 0.975062
vt 0.644105 0.974893
vt 0.644952 0.794745
vt 0.678947 0.795516
vt 0.506621 0.974166
vt 0.507500 0.794445
vt 0.466708 0.031285
vt 0.320139 0.031198
vt 0.295711 0.031184
vt 0.271283 0.031169
vt 0.246855 0.031155
vt 0.222427 0.031140
vt 0.197999 0.031126
vt 0.173570 0.031111
vt 0.027002 0.031025
vt 0.466520 0.263893
vt 0.319985 0.263806
vt 0.295562 0.263792
vt 0.271139 0.263777
vt 0.246717 0.263763
vt 0.222294 0.263748
vt 0.197872 0.263734
vt 0.173449 0.263719
vt 0.026913 0.263632
vt 0.975495 0.617101
vt 0.823006 0.617213
vt 0.809885 0.646688
vt 0.962374 0.646682
vt 0.975575 0.437488
vt 0.822896 0.437487
vt 0.956123 0.676802
vt 0.803444 0.676802
vt 0.466432 0.496501
vt 0.319863 0.496414
vt 0.644105 0.438540
vt 0.506621 0.439267
vt 0.507500 0.618987
vt 0.644952 0.618687
vt 0.657179 0.646178
vt 0.505022 0.646597
vt 0.650764 0.676802
vt 0.498085 0.676802
vt 0.173294 0.496327
vt 0.026726 0.496240
vt 0.678051 0.438370
vt 0.678947 0.617916
vt 0.683249 0.646658
vt 0.676211 0.676801
vt 0.197723 0.496342
vt 0.789205 0.437487
vt 0.789205 0.616973
vt 0.295435 0.496400
vt 0.777997 0.676802
vt 0.784932 0.646887
vt 0.756100 0.437488
vt 0.756099 0.616973
vt 0.271007 0.496385
vt 0.752550 0.676802
vt 0.754772 0.646888
vt 0.727006 0.437487
vt 0.727006 0.616973
vt 0.246579 0.496371
vt 0.727104 0.676802
vt 0.728355 0.646888
vt 0.705014 0.437862
vt 0.705566 0.617378
vt 0.222151 0.496356
vt 0.701657 0.676801
vt 0.703513 0.646608
vt 0.466510 0.289576
vt 0.319971 0.289489
vt 0.295548 0.289475
vt 0.271125 0.289460
vt 0.246702 0.289446
vt 0.222278 0.289431
vt 0.197855 0.289417
vt 0.173432 0.289402
vt 0.026893 0.289315
vt 0.466501 0.315292
vt 0.319958 0.315205
vt 0.295534 0.315191
vt 0.271110 0.315176
vt 0.246686 0.315162
vt 0.222262 0.315147
vt 0.197839 0.315133
vt 0.173415 0.315119
vt 0.026872 0.315032
vt 0.466491 0.341439
vt 0.319944 0.341352
vt 0.295520 0.341338
vt 0.271095 0.341323
vt 0.246671 0.341309
vt 0.222246 0.341294
vt 0.197822 0.341280
vt 0.173398 0.341265
vt 0.026851 0.341178
vt 0.026943 0.186082
vt 0.173489 0.186169
vt 0.197914 0.186184
vt 0.222338 0.186198
vt 0.246763 0.186213
vt 0.271187 0.186227
vt 0.295612 0.186242
vt 0.320036 0.186256
vt 0.466583 0.186343
vt 0.026933 0.211759
vt 0.173476 0.211845
vt 0.197900 0.211860
vt 0.222324 0.211874
vt 0.246748 0.211889
vt 0.271171 0.211903
vt 0.295595 0.211918
vt 0.320019 0.211932
vt 0.466562 0.212019
vt 0.026923 0.237483
vt 0.173463 0.237570
vt 0.197886 0.237585
vt 0.222309 0.237599
vt 0.246732 0.237614
vt 0.271156 0.237628
vt 0.295579 0.237642
vt 0.320002 0.237657
vt 0.466541 0.237744
vt 0.463319 0.798929
vt 0.317971 0.798929
vt 0.317977 0.639568
vt 0.463319 0.639568
vt 0.293746 0.798929
vt 0.293832 0.639568
vt 0.269521 0.798929
vt 0.269664 0.639568
vt 0.245296 0.798929
vt 0.245296 0.639568
vt 0.221072 0.798929
vt 0.221148 0.639568
vt 0.196847 0.798929
vt 0.196984 0.639568
vt 0.172623 0.798929
vt 0.172618 0.639568
vt 0.027274 0.798929
vt 0.027274 0.639568
vt 0.172014 0.934795
vt 0.027755 0.934494
vt 0.028011 0.811779
vt 0.172271 0.812081
vt 0.196058 0.934845
vt 0.196314 0.812131
vt 0.220101 0.934895
vt 0.220357 0.812181
vt 0.244144 0.934946
vt 0.244400 0.812231
vt 0.268187 0.934996
vt 0.268444 0.812281
vt 0.292230 0.935046
vt 0.292487 0.812331
vt 0.316274 0.935096
vt 0.316530 0.812382
vt 0.460533 0.935398
vt 0.460789 0.812683
vt 0.464549 0.632182
vt 0.318069 0.631565
vt 0.318594 0.506962
vt 0.465074 0.507579
vt 0.293656 0.631462
vt 0.294181 0.506859
vt 0.269243 0.631360
vt 0.269768 0.506757
vt 0.244830 0.631257
vt 0.245355 0.506654
vt 0.220417 0.631154
vt 0.220941 0.506551
vt 0.196003 0.631051
vt 0.196528 0.506448
vt 0.171590 0.630948
vt 0.172115 0.506345
vt 0.025111 0.630331
vt 0.025636 0.505728
vn -0.000001 -1.000000 0.000001
vn 0.003459 -0.999988 -0.003460
vn 0.018560 -0.998913 -0.042751
vn 0.000002 -1.000000 0.000000
vn -0.000001 -1.000000 0.000001
vn -0.000001 -1.000000 0.000000
vn 0.000003 -1.000000 0.000000
vn 0.009881 -0.997420 -0.071095
vn 0.006850 -0.996697 -0.080915
vn 0.000002 -1.000000 0.000000
vn -0.000001 1.000000 -0.000000
vn 0.000000 1.000000 -0.000000
vn 0.000000 1.000000 -0.000000
vn -0.000000 1.000000 -0.000000
vn 0.000000 -1.000000 -0.000000
vn 0.000000 -1.000000 0.000000
vn 0.117515 -0.993071 0.000000
vn 0.117218 -0.993106 -0.000329
vn 0.525797 -0.850608 -0.001967
vn 0.525977 -0.850499 0.000000
vn 0.263654 -0.964617 -0.001118
vn 0.262597 -0.964906 0.000000
vn 0.134542 -0.990908 0.000000
vn 0.134542 -0.990908 0.000000
vn -0.000000 1.000000 0.000000
vn 0.000000 1.000000 0.000000
vn 0.000000 1.000000 0.000000
vn 0.000000 1.000000 0.000000
vn 0.000000 -1.000000 0.000001
vn 0.114542 -0.993418 -0.000718
vn 0.526828 -0.849961 -0.004274
vn 0.272099 -0.962266 -0.002438
vn 0.134542 -0.990908 0.000000
vn -0.000000 1.000000 0.000000
vn 0.000000 1.000000 0.000000
vn 0.000000 -1.000000 -0.000003
vn 0.052987 -0.998179 -0.028813
vn 0.000000 1.000000 0.000000
vn -0.000000 1.000000 0.000000
vn 0.097145 -0.894713 -0.435948
vn 0.073381 -0.883548 -0.462557
vn 0.240529 -0.923219 -0.299688
vn 0.000000 -1.000000 -0.000003
vn 0.098209 -0.995026 -0.016673
vn 0.000000 1.000000 0.000000
vn -0.000000 1.000000 0.000000
vn 0.159862 -0.947978 -0.275284
vn 0.119651 -0.948590 -0.293020
vn 0.398480 -0.900303 -0.175125
vn 0.000000 -1.000000 0.000000
vn 0.114691 -0.993401 -0.000000
vn 0.000000 1.000000 0.000000
vn 0.000000 1.000000 0.000000
vn 0.217087 -0.971709 -0.093027
vn 0.133483 -0.983108 -0.125220
vn 0.487771 -0.872528 -0.027825
vn 0.000000 -1.000000 0.000003
vn 0.114170 -0.993461 0.000439
vn 0.000000 1.000000 0.000000
vn 0.000000 1.000000 0.000000
vn 0.259493 -0.964981 -0.038413
vn 0.134344 -0.989452 -0.054182
vn 0.517171 -0.855833 -0.009158
vn 0.000001 -1.000000 0.000000
vn 0.000000 -1.000000 0.000000
vn -0.019915 -0.998944 -0.041396
vn -0.003459 -0.999994 -0.000744
vn 0.000000 -1.000000 0.000000
vn 0.000453 -0.999996 0.002716
vn -0.000003 -1.000000 0.000000
vn -0.000002 -1.000000 0.000000
vn -0.006850 -0.996697 -0.080915
vn -0.009881 -0.997420 -0.071095
vn 0.000001 1.000000 -0.000000
vn 0.000000 1.000000 -0.000000
vn 0.000000 1.000000 -0.000000
vn 0.000000 1.000000 -0.000000
vn 0.000453 -0.999996 -0.002716
vn -0.117439 -0.993075 -0.003036
vn -0.117515 -0.993071 0.000000
vn 0.000000 -1.000000 0.000000
vn -0.526623 -0.850093 -0.003105
vn -0.525977 -0.850499 0.000000
vn -0.263654 -0.964617 -0.001118
vn -0.262597 -0.964906 0.000000
vn -0.134543 -0.990908 0.000000
vn -0.134543 -0.990908 0.000000
vn 0.000000 1.000000 0.000000
vn 0.000000 1.000000 0.000000
vn 0.000000 1.000000 0.000000
vn 0.000000 1.000000 0.000000
vn 0.001584 -0.999954 0.009504
vn -0.111886 -0.993687 0.008274
vn -0.529561 -0.848267 -0.002818
vn -0.273424 -0.961886 -0.003875
vn -0.134543 -0.990908 0.000000
vn 0.000000 1.000000 0.000000
vn 0.000000 1.000000 0.000000
vn -0.051849 -0.997950 -0.037519
vn 0.001584 -0.999954 -0.009504
vn 0.000000 1.000000 0.000000
vn 0.000000 1.000000 0.000000
vn -0.073381 -0.883548 -0.462557
vn -0.098597 -0.895138 -0.434749
vn -0.244517 -0.921442 -0.301922
vn -0.097871 -0.994561 -0.035624
vn -0.003168 -0.999814 -0.019009
vn 0.000000 1.000000 0.000000
vn 0.000000 1.000000 0.000000
vn -0.119651 -0.948590 -0.293020
vn -0.164079 -0.947724 -0.273675
vn -0.391094 -0.902468 -0.180547
vn -0.113012 -0.993594 -0.000000
vn -0.006336 -0.999980 0.000000
vn 0.000000 1.000000 0.000000
vn 0.000000 1.000000 0.000000
vn -0.133483 -0.983108 -0.125220
vn -0.222632 -0.970465 -0.092906
vn -0.474978 -0.879550 -0.028049
vn -0.114291 -0.993267 0.018935
vn -0.003168 -0.999814 0.019009
vn 0.000000 1.000000 0.000000
vn 0.000000 1.000000 0.000000
vn -0.134345 -0.989452 -0.054182
vn -0.263441 -0.963853 -0.039817
vn -0.511410 -0.859330 -0.003591
vn -0.000000 0.000000 -1.000000
vn -0.000000 0.000000 -1.000000
vn -0.000000 0.000000 -1.000000
vn -0.000000 0.000000 -1.000000
vn 1.000000 0.000000 0.000000
vn 1.000000 0.000000 0.000000
vn 1.000000 0.000000 0.000000
vn 1.000000 0.000000 0.000000
vn 0.000000 0.000000 -1.000000
vn 0.000000 0.000000 -1.000000
vn 0.000000 0.000000 -1.000000
vn 0.000000 0.000000 -1.000000
vn 0.000000 0.000000 -1.000000
vn 0.000000 0.000000 -1.000000
vn 1.000000 0.000000 0.000000
vn 1.000000 0.000000 0.000000
vn 1.000000 0.000000 0.000000
vn 1.000000 0.000000 0.000000
vn 1.000000 0.000000 0.000000
vn 1.000000 0.000000 0.000000
vn 1.000000 0.000000 0.000000
vn 1.000000 0.000000 0.000000
vn 1.000000 0.000000 0.000000
vn 1.000000 0.000000 0.000000
vn 1.000000 0.000000 0.000000
vn 1.000000 0.000000 0.000000
vn 1.000000 0.000000 0.000000
vn 1.000000 0.000000 0.000000
vn 0.000000 0.000000 -1.000000
vn 0.000000 0.000000 -1.000000
vn 0.000000 0.000000 -1.000000
vn 0.000000 0.000000 -1.000000
vn -1.000000 0.000000 0.000000
vn -1.000000 0.000000 0.000000
vn -1.000000 0.000000 0.000000
vn -1.000000 0.000000 0.000000
vn 0.000000 0.000000 -1.000000
vn 0.000000 0.000000 -1.000000
vn 0.000000 0.000000 -1.000000
vn 0.000000 0.000000 -1.000000
vn -1.000000 0.000000 0.000000
vn -1.000000 0.000000 0.000000
vn -1.000000 0.000000 0.000000
vn -1.000000 0.000000 0.000000
vn -1.000000 0.000000 0.000000
vn -1.000000 0.000000 0.000000
vn -1.000000 0.000000 0.000000
vn -1.000000 0.000000 0.000000
vn -1.000000 0.000000 0.000000
vn -1.000000 0.000000 0.000000
vn -1.000000 0.000000 0.000000
vn -1.000000 0.000000 0.000000
vn -1.000000 0.000000 0.000000
vn -1.000000 0.000000 0.000000
vn -0.000000 1.000000 0.000000
vn 0.000000 1.000000 0.000000
vn 0.000000 1.000000 0.000000
vn 0.000000 1.000000 0.000000
vn 0.000000 1.000000 0.000000
vn 0.000000 1.000000 0.000000
vn 0.000000 1.000000 0.000000
vn 0.000000 1.000000 0.000000
vn 0.000000 1.000000 0.000000
vn -0.000000 1.000000 0.000000
vn -0.000000 1.000000 -0.000000
vn 0.000000 1.000000 0.000000
vn 0.000000 1.000000 0.000001
vn -0.000000 1.000000 0.000000
vn 0.000000 1.000000 -0.000001
vn 0.000000 1.000000 0.000000
vn 0.000000 1.000000 0.000000
vn 0.000000 1.000000 0.000000
vn 0.000000 1.000000 0.000000
vn 0.000000 1.000000 -0.000000
vn 0.000000 1.000000 0.000000
vn 0.000000 1.000000 0.000001
vn -0.000000 1.000000 0.000000
vn 0.000000 1.000000 -0.000001
vn 0.000000 1.000000 0.000000
vn 0.000000 1.000000 0.000000
vn 0.000000 1.000000 0.000000
vn -0.000000 1.000000 0.000000
vn -0.000000 1.000000 0.000000
vn 0.000000 1.000000 0.000000
vn 0.000000 1.000000 0.000000
vn -0.000000 1.000000 0.000000
vn -0.000000 1.000000 0.000000
vn -0.000000 1.000000 -0.000001
vn -0.000000 1.000000 -0.000001
vn 0.000000 1.000000 0.000000
vn 0.000000 1.000000 0.000000
vn -0.000000 1.000000 0.000001
vn -0.000000 1.000000 0.000001
vn -0.000000 1.000000 0.000000
vn -0.000000 1.000000 0.000000
vn -0.000000 1.000000 -0.000000
vn 0.000000 1.000000 -0.000000
vn -0.000000 1.000000 -0.000000
vn 0.000000 1.000000 -0.000000
vn -0.000000 1.000000 0.000000
vn 0.000000 1.000000 0.000000
vn -0.000000 1.000000 0.000000
vn 0.000000 1.000000 -0.000000
vn 0.000000 1.000000 0.000000
vn -0.000000 1.000000 0.000000
vn -0.000000 1.000000 0.000000
vn -0.000000 1.000000 -0.000000
vn -0.000000 1.000000 -0.000000
s 1
g pPlane9
usemtl phongE1SG
f 4/10/1 20/4/2 21/7/3 9/20/4
f 1/9/5 19/1/6 20/4/2 4/10/1
f 7/21/7 22/14/8 23/22/9 5/27/10
f 9/20/4 21/7/3 22/14/8 7/21/7
s 2
f 111/162/11 55/55/12 56/56/13 162/161/14
s 1
f 13/41/15 2/44/16 3/45/17 14/42/18
f 15/33/19 14/42/18 3/45/17 10/36/20
f 16/34/21 15/33/19 10/36/20 8/37/22
f 17/38/23 16/34/21 8/37/22 6/39/24
s 2
f 156/155/25 62/62/26 63/63/27 155/154/28
s 1
f 50/40/29 13/41/15 14/42/18 49/43/30
f 54/30/31 49/43/30 14/42/18 15/33/19
f 53/31/32 54/30/31 15/33/19 16/34/21
f 52/35/33 53/31/32 16/34/21 17/38/23
s 2
f 157/156/34 61/61/35 62/62/26 156/155/25
s 1
f 19/1/6 26/2/36 25/3/37 20/4/2
s 2
f 162/161/14 56/56/13 57/57/38 161/160/39
s 1
f 23/22/9 22/14/8 29/15/40 28/23/41
f 22/14/8 21/7/3 30/8/42 29/15/40
f 21/7/3 20/4/2 25/3/37 30/8/42
f 26/2/36 32/5/43 31/6/44 25/3/37
s 2
f 161/160/39 57/57/38 58/58/45 160/159/46
s 1
f 28/23/41 29/15/40 35/19/47 34/26/48
f 29/15/40 30/8/42 36/13/49 35/19/47
f 30/8/42 25/3/37 31/6/44 36/13/49
f 32/5/43 38/11/50 37/12/51 31/6/44
s 2
f 160/159/46 58/58/45 59/59/52 159/158/53
s 1
f 34/26/48 35/19/47 41/25/54 40/29/55
f 35/19/47 36/13/49 42/18/56 41/25/54
f 36/13/49 31/6/44 37/12/51 42/18/56
f 38/11/50 44/16/57 43/17/58 37/12/51
s 2
f 159/158/53 59/59/52 60/60/59 158/157/60
s 1
f 40/29/55 41/25/54 47/28/61 46/32/62
f 41/25/54 42/18/56 48/24/63 47/28/61
f 42/18/56 37/12/51 43/17/58 48/24/63
f 44/16/57 50/40/29 49/43/30 43/17/58
s 2
f 158/157/60 60/60/59 61/61/35 157/156/34
s 1
f 46/32/62 47/28/61 53/31/32 52/35/33
f 47/28/61 48/24/63 54/30/31 53/31/32
f 48/24/63 43/17/58 49/43/30 54/30/31
s 5
f 64/64/64 67/67/65 66/66/66 65/65/67
f 68/68/68 64/64/64 65/65/67 69/69/69
f 70/70/70 5/27/71 23/22/72 71/71/73
f 67/67/65 70/70/70 71/71/73 66/66/66
s 7
f 114/109/74 115/110/75 56/56/76 55/55/77
s 5
f 74/74/78 77/77/79 76/76/80 75/75/81
f 78/78/82 79/79/83 76/76/80 77/77/79
f 80/80/84 81/81/85 79/79/83 78/78/82
f 17/38/86 6/39/87 81/81/85 80/80/84
s 7
f 121/116/88 122/117/89 63/63/90 62/62/91
s 5
f 84/84/92 85/85/93 77/77/79 74/74/78
f 86/86/94 78/78/82 77/77/79 85/85/93
f 87/87/95 80/80/84 78/78/82 86/86/94
f 52/35/96 17/38/86 80/80/84 87/87/95
s 7
f 120/115/97 121/116/88 62/62/91 61/61/98
s 5
f 69/69/69 65/65/67 90/90/99 89/89/100
s 7
f 115/110/75 116/111/101 57/57/102 56/56/76
s 5
f 23/22/72 28/23/103 92/92/104 71/71/73
f 71/71/73 92/92/104 93/93/105 66/66/66
f 66/66/66 93/93/105 90/90/99 65/65/67
f 89/89/100 90/90/99 95/95/106 94/94/107
s 7
f 116/111/101 117/112/108 58/58/109 57/57/102
s 5
f 28/23/103 34/26/110 97/97/111 92/92/104
f 92/92/104 97/97/111 98/98/112 93/93/105
f 93/93/105 98/98/112 95/95/106 90/90/99
f 94/94/107 95/95/106 100/100/113 99/99/114
s 7
f 117/112/108 118/113/115 59/59/116 58/58/109
s 5
f 34/26/110 40/29/117 102/102/118 97/97/111
f 97/97/111 102/102/118 103/103/119 98/98/112
f 98/98/112 103/103/119 100/100/113 95/95/106
f 99/99/114 100/100/113 105/105/120 104/104/121
s 7
f 118/113/115 119/114/122 60/60/123 59/59/116
s 5
f 40/29/117 46/32/124 107/107/125 102/102/118
f 102/102/118 107/107/125 108/108/126 103/103/119
f 103/103/119 108/108/126 105/105/120 100/100/113
f 104/104/121 105/105/120 85/85/93 84/84/92
s 7
f 119/114/122 120/115/97 61/61/98 60/60/123
s 5
f 46/32/124 52/35/96 87/87/95 107/107/125
f 107/107/125 87/87/95 86/86/94 108/108/126
f 108/108/126 86/86/94 85/85/93 105/105/120
s 10
f 1/163/127 4/164/128 109/165/129 11/166/130
s 11
f 19/181/131 1/182/132 11/183/133 24/184/134
s 10
f 4/164/128 9/167/135 110/168/136 109/165/129
f 7/169/137 5/171/138 55/172/139 111/170/140
f 9/167/135 7/169/137 111/170/140 110/168/136
s 11
f 2/197/141 13/195/142 18/196/143 12/198/144
f 26/185/145 19/181/131 24/184/134 27/186/146
f 32/187/147 26/185/145 27/186/146 33/188/148
f 38/189/149 32/187/147 33/188/148 39/190/150
f 44/191/151 38/189/149 39/190/150 45/192/152
f 50/193/153 44/191/151 45/192/152 51/194/154
f 13/195/142 50/193/153 51/194/154 18/196/143
s 10
f 67/175/155 64/177/156 112/178/157 113/176/158
s 15
f 68/199/159 69/200/160 73/201/161 72/202/162
s 10
f 64/177/156 68/179/163 72/180/164 112/178/157
f 5/171/138 70/173/165 114/174/166 55/172/139
f 70/173/165 67/175/155 113/176/158 114/174/166
s 15
f 74/213/167 75/215/168 83/216/169 82/214/170
f 84/211/171 74/213/167 82/214/170 88/212/172
f 69/200/160 89/203/173 91/204/174 73/201/161
f 89/203/173 94/205/175 96/206/176 91/204/174
f 94/205/175 99/207/177 101/208/178 96/206/176
f 99/207/177 104/209/179 106/210/180 101/208/178
f 104/209/179 84/211/171 88/212/172 106/210/180
s 7
f 113/118/181 123/119/182 115/110/75 114/109/74
f 123/119/182 124/120/183 116/111/101 115/110/75
f 124/120/183 125/121/184 117/112/108 116/111/101
f 125/121/184 126/122/185 118/113/115 117/112/108
f 126/122/185 127/123/186 119/114/122 118/113/115
f 127/123/186 128/124/187 120/115/97 119/114/122
f 128/124/187 129/125/188 121/116/88 120/115/97
f 129/125/188 130/126/189 122/117/89 121/116/88
f 112/127/190 131/128/191 123/119/182 113/118/181
f 131/128/191 132/129/192 124/120/183 123/119/182
f 132/129/192 133/130/193 125/121/184 124/120/183
f 133/130/193 134/131/194 126/122/185 125/121/184
f 134/131/194 135/132/195 127/123/186 126/122/185
f 135/132/195 136/133/196 128/124/187 127/123/186
f 136/133/196 137/134/197 129/125/188 128/124/187
f 137/134/197 138/135/198 130/126/189 129/125/188
f 72/72/199 73/73/200 131/128/191 112/127/190
f 73/73/200 91/91/201 132/129/192 131/128/191
f 91/91/201 96/96/202 133/130/193 132/129/192
f 96/96/202 101/101/203 134/131/194 133/130/193
f 101/101/203 106/106/204 135/132/195 134/131/194
f 106/106/204 88/88/205 136/133/196 135/132/195
f 88/88/205 82/82/206 137/134/197 136/133/196
f 82/82/206 83/83/207 138/135/198 137/134/197
s 2
f 18/53/208 140/137/209 139/136/210 12/54/211
f 51/52/212 141/138/213 140/137/209 18/53/208
f 45/51/214 142/139/215 141/138/213 51/52/212
f 39/50/216 143/140/217 142/139/215 45/51/214
f 33/49/218 144/141/219 143/140/217 39/50/216
f 27/48/220 145/142/221 144/141/219 33/49/218
f 24/47/222 146/143/223 145/142/221 27/48/220
f 11/46/224 109/144/225 146/143/223 24/47/222
f 140/137/209 148/146/226 147/145/227 139/136/210
f 141/138/213 149/147/228 148/146/226 140/137/209
f 142/139/215 150/148/229 149/147/228 141/138/213
f 143/140/217 151/149/230 150/148/229 142/139/215
f 144/141/219 152/150/231 151/149/230 143/140/217
f 145/142/221 153/151/232 152/150/231 144/141/219
f 146/143/223 154/152/233 153/151/232 145/142/221
f 109/144/225 110/153/234 154/152/233 146/143/223
f 148/146/226 156/155/25 155/154/28 147/145/227
f 149/147/228 157/156/34 156/155/25 148/146/226
f 150/148/229 158/157/60 157/156/34 149/147/228
f 151/149/230 159/158/53 158/157/60 150/148/229
f 152/150/231 160/159/46 159/158/53 151/149/230
f 153/151/232 161/160/39 160/159/46 152/150/231
f 154/152/233 162/161/14 161/160/39 153/151/232
f 110/153/234 111/162/11 162/161/14 154/152/233
