# Wavefront Obj file
# 
# verts: 94 uv-s: 188
mtllib altarTextures.mtl

g polySurface173

v -60.252895 43.532604 -1.686921
v 4.698750 43.532604 -1.686921
v 55.558361 21.882050 201.950745
v -111.105713 21.882050 202.019409
v 55.558521 21.882050 -1.686921
v -111.105927 21.882050 -1.686921
v -158.767593 0.231506 233.798401
v 103.233276 0.231506 233.729797
v 103.233597 0.231514 -1.686921
v -158.767899 0.231506 -1.686921
v -158.767593 0.231506 -237.172363
v 103.233276 0.231506 -237.103760
v -111.105713 21.882050 -205.393280
v 55.558361 21.882050 -205.324768
v 50.146290 43.532604 196.540924
v 55.558361 38.120514 201.950745
v -111.105713 38.120514 202.019409
v -105.693619 43.532604 196.605072
v -111.105927 38.120514 -1.686921
v -105.693848 43.532604 -1.686921
v 50.146458 43.532604 -1.686921
v 55.558521 38.120514 -1.686921
v 97.821182 21.882050 228.319092
v 103.233276 16.469959 233.729797
v -158.767593 16.469948 233.798401
v -153.355499 21.882050 228.384888
v 97.821503 21.882065 -1.686921
v 103.233597 16.469963 -1.686921
v -158.767899 16.469959 -1.686921
v -153.355789 21.882050 -1.686921
v 103.233276 16.469959 -237.103760
v 97.821182 21.882050 -231.692993
v -158.767593 16.469948 -237.172363
v -153.355499 21.882050 -231.758820
v 55.558361 38.120514 -205.324768
v 50.146290 43.532604 -199.914825
v -105.693619 43.532604 -199.978973
v -111.105713 38.120514 -205.393280
v 18.875240 56.119019 118.699211
v -73.666176 56.119019 118.699211
v -73.666176 56.119019 -124.433678
v 18.875240 56.119019 -124.433678
v -79.081146 45.165924 124.114197
v 24.290188 45.165924 124.114197
v 24.290188 45.165924 -129.848663
v -79.081146 45.165924 -129.848663
v 18.875240 128.209961 118.699211
v -73.666176 128.209961 118.699211
v -73.666176 128.209961 -124.433678
v 18.875240 128.209961 -124.433678
v 32.200371 137.707382 143.464478
v -86.991264 137.707382 143.464478
v -86.991264 137.707382 -149.198914
v 32.200371 137.707382 -149.198914
v -80.727165 132.958649 -133.818054
v -80.727165 132.958649 128.083618
v 25.936260 132.958649 128.083618
v 25.936260 132.958649 -133.818054
v 23.056591 56.119019 122.880562
v 24.290188 54.885406 124.114197
v -79.081146 54.885406 124.114197
v -77.847565 56.119019 122.880562
v -77.847565 56.119019 -128.615021
v -79.081146 54.885406 -129.848663
v 24.290188 54.885406 -129.848663
v 23.056591 56.119019 -128.615021
v 24.618038 129.037369 124.846786
v 23.267025 128.209961 123.090935
v -78.057938 128.209961 123.090935
v -79.408974 129.037369 124.846786
v -78.057938 128.209961 -128.825424
v -79.408974 129.037369 -130.581268
v 23.267025 128.209961 -128.825424
v 24.618038 129.037369 -130.581268
v -86.991264 141.408676 143.464478
v -85.757675 142.642319 142.230865
v 30.966755 142.642319 142.230865
v 32.200371 141.408676 143.464478
v 30.966755 142.642319 -147.965271
v 32.200371 141.408676 -149.198914
v -85.757675 142.642319 -147.965271
v -86.991264 141.408676 -149.198914
v -76.024048 137.611343 130.915741
v 21.634060 137.611343 130.915741
v -76.024048 137.611343 -135.820129
v 21.634060 137.611343 -135.820129
v -76.024048 146.568451 130.915741
v -70.597176 151.995316 125.488861
v 16.207184 151.995316 125.488861
v 21.634060 146.568451 130.915741
v -70.597176 151.995316 -130.393250
v -76.024048 146.568451 -135.820129
v 16.207184 151.995316 -130.393250
v 21.634060 146.568451 -135.820129
# 94 positions

vt 0.718683 0.541307
vt 0.711461 0.548527
vt 0.711461 0.276763
vt 0.718683 0.276763
vt 0.276740 0.237230
vt 0.269518 0.244452
vt 0.061543 0.244452
vt 0.054320 0.237230
vt 0.733054 0.005000
vt 0.725831 0.012226
vt 0.725831 0.276855
vt 0.733054 0.276855
vt 0.725831 0.541484
vt 0.733054 0.548710
vt 0.276855 0.576820
vt 0.276855 0.584042
vt 0.005091 0.584042
vt 0.012311 0.576820
vt 0.626218 0.347429
vt 0.633439 0.354652
vt 0.319266 0.354652
vt 0.319266 0.347430
vt 0.626306 0.012223
vt 0.633531 0.005000
vt 0.319266 0.012223
vt 0.319266 0.005000
vt 0.005092 0.354652
vt 0.012313 0.347429
vt 0.012225 0.012223
vt 0.005000 0.005000
vt 0.005000 0.361622
vt 0.012226 0.368844
vt 0.529356 0.933213
vt 0.529356 0.583562
vt 0.507685 0.583562
vt 0.507685 0.933213
vt 0.640470 0.633348
vt 0.640470 0.319174
vt 0.662141 0.319174
vt 0.662141 0.633348
vt 0.571088 0.675887
vt 0.571088 0.361622
vt 0.549417 0.361622
vt 0.549417 0.675887
vt 0.054320 0.215559
vt 0.276740 0.215559
vt 0.754725 0.276855
vt 0.754725 0.005000
vt 0.689790 0.548527
vt 0.689790 0.276763
vt 0.591029 0.291028
vt 0.591121 0.068607
vt 0.319266 0.291028
vt 0.319266 0.068607
vt 0.276855 0.516168
vt 0.276855 0.429487
vt 0.276855 0.368844
vt 0.541484 0.368844
vt 0.541399 0.576820
vt 0.783544 0.336962
vt 0.761873 0.336962
vt 0.761873 0.686613
vt 0.783544 0.686613
vt 0.640470 0.005000
vt 0.662141 0.005000
vt 0.549417 0.990153
vt 0.571088 0.990153
vt 0.373808 0.758079
vt 0.352137 0.758079
vt 0.352137 0.980499
vt 0.373808 0.980499
vt 0.754725 0.548710
vt 0.689790 0.005000
vt 0.711461 0.005000
vt 0.047502 0.291028
vt 0.047411 0.068607
vt 0.907401 0.460462
vt 0.907401 0.336962
vt 0.811193 0.336962
vt 0.811193 0.460462
vt 0.499563 0.908033
vt 0.499563 0.583562
vt 0.403354 0.583562
vt 0.403354 0.908033
vt 0.811193 0.467850
vt 0.811193 0.591350
vt 0.907402 0.591350
vt 0.907402 0.467850
vt 0.761873 0.329471
vt 0.761873 0.005000
vt 0.858081 0.005000
vt 0.858081 0.329471
vt 0.025526 0.741856
vt 0.025526 0.599509
vt 0.005000 0.591150
vt 0.005000 0.750216
vt 0.375046 0.741856
vt 0.395572 0.750216
vt 0.395572 0.591150
vt 0.375046 0.599509
vt 0.342278 0.894386
vt 0.343925 0.896033
vt 0.005000 0.896033
vt 0.006646 0.894386
vt 0.342278 0.759725
vt 0.343925 0.758079
vt 0.006646 0.759725
vt 0.005000 0.758079
vt 0.029846 0.601269
vt 0.032189 0.603072
vt 0.368382 0.603072
vt 0.370726 0.601269
vt 0.029846 0.740097
vt 0.032189 0.738294
vt 0.370726 0.740097
vt 0.368382 0.738294
vt 0.995000 0.725831
vt 0.993354 0.727478
vt 0.606074 0.727478
vt 0.604428 0.725831
vt 0.995000 0.884898
vt 0.993354 0.883251
vt 0.604428 0.884898
vt 0.606074 0.883251
vt 0.516862 0.215037
vt 0.516862 0.077083
vt 0.503891 0.077083
vt 0.503891 0.215037
vt 0.483025 0.077083
vt 0.483025 0.215037
vt 0.495996 0.215037
vt 0.495996 0.077083
vt 0.790327 0.675886
vt 0.790327 0.336962
vt 0.803298 0.336962
vt 0.803298 0.675886
vt 0.681894 0.708134
vt 0.681894 0.369209
vt 0.668924 0.369209
vt 0.668924 0.708134
vt 0.336698 0.888806
vt 0.336698 0.765306
vt 0.012227 0.765306
vt 0.012227 0.888806
vt 0.038051 0.732433
vt 0.038051 0.608933
vt 0.362522 0.732433
vt 0.362522 0.608933
vt 0.474687 0.236150
vt 0.474687 0.077083
vt 0.469747 0.077083
vt 0.469747 0.236150
vt 0.577871 0.752194
vt 0.577871 0.361622
vt 0.582810 0.361622
vt 0.582810 0.752194
vt 0.461407 0.236150
vt 0.461407 0.077083
vt 0.456468 0.077083
vt 0.456468 0.236150
vt 0.596089 0.752194
vt 0.596089 0.361622
vt 0.591150 0.361622
vt 0.591150 0.752194
vt 0.410290 0.077083
vt 0.403048 0.084326
vt 0.061562 0.084326
vt 0.054320 0.077083
vt 0.410290 0.207412
vt 0.403048 0.200170
vt 0.054320 0.207412
vt 0.061562 0.200170
vt 0.430483 0.207412
vt 0.430483 0.077083
vt 0.418530 0.077083
vt 0.418530 0.207412
vt 0.437499 0.077083
vt 0.437499 0.207412
vt 0.449452 0.207412
vt 0.449452 0.077083
vt 0.604428 0.717592
vt 0.604428 0.361622
vt 0.616381 0.361622
vt 0.616381 0.717592
vt 0.680877 0.360971
vt 0.680877 0.005000
vt 0.668924 0.005000
vt 0.668924 0.360971
# 188 texture coordinates

vn 0.707108 0.707105 0.000001
vn 0.707108 0.707105 0.000001
vn 0.707108 0.707105 -0.000000
vn 0.707108 0.707105 0.000000
vn 0.000291 0.707106 0.707108
vn 0.000291 0.707106 0.707108
vn 0.000291 0.707106 0.707107
vn 0.000291 0.707106 0.707108
vn -0.707107 0.707107 0.000001
vn -0.707107 0.707107 0.000001
vn -0.707107 0.707107 -0.000000
vn -0.707107 0.707107 0.000000
vn -0.707107 0.707107 -0.000001
vn -0.707107 0.707107 -0.000001
vn 0.707108 0.707105 -0.000001
vn 0.707108 0.707105 -0.000001
vn 0.707107 0.707107 0.000001
vn 0.707107 0.707107 0.000001
vn 0.707107 0.707107 -0.000000
vn 0.707107 0.707107 0.000000
vn 0.000185 0.707108 0.707106
vn 0.000185 0.707108 0.707106
vn 0.000185 0.707108 0.707106
vn 0.000185 0.707108 0.707106
vn -0.707106 0.707107 0.000001
vn -0.707106 0.707107 0.000001
vn -0.707106 0.707107 0.000000
vn -0.707106 0.707107 -0.000000
vn 0.707107 0.707107 -0.000001
vn 0.707107 0.707107 -0.000001
vn -0.707106 0.707107 -0.000001
vn -0.707106 0.707107 -0.000001
vn 0.000185 0.707111 -0.707103
vn 0.000185 0.707111 -0.707103
vn 0.000185 0.707111 -0.707103
vn 0.000185 0.707111 -0.707103
vn 0.000291 0.707109 -0.707105
vn 0.000291 0.707109 -0.707105
vn 0.000291 0.707109 -0.707105
vn 0.000291 0.707109 -0.707105
vn 0.000262 0.000000 1.000000
vn 0.000262 0.000000 1.000000
vn 0.000262 0.000000 1.000000
vn 0.000262 0.000000 1.000000
vn 1.000000 0.000000 0.000001
vn 1.000000 0.000000 -0.000000
vn 1.000000 0.000000 -0.000000
vn 1.000000 0.000000 0.000001
vn -1.000000 0.000000 0.000000
vn -1.000000 0.000000 0.000001
vn -1.000000 0.000000 0.000001
vn -1.000000 0.000000 0.000000
vn 0.000412 0.000000 1.000000
vn 0.000412 0.000000 1.000000
vn 0.000412 0.000000 1.000000
vn 0.000412 0.000000 1.000000
vn -1.000000 0.000000 0.000000
vn -1.000000 0.000000 0.000001
vn -1.000000 0.000000 0.000001
vn -1.000000 0.000000 0.000000
vn 1.000000 0.000000 0.000001
vn 1.000000 0.000000 0.000000
vn 1.000000 0.000000 0.000000
vn 1.000000 0.000000 0.000001
vn -0.000000 1.000000 0.000000
vn 0.000000 1.000000 0.000000
vn 0.000000 1.000000 0.000000
vn -0.000000 1.000000 0.000000
vn -0.000000 1.000000 -0.000000
vn -0.000000 1.000000 0.000000
vn 0.000000 1.000000 0.000000
vn 0.000000 1.000000 0.000000
vn 0.000000 1.000000 0.000000
vn 0.000000 1.000000 0.000000
vn 0.000000 1.000000 0.000000
vn 0.000000 1.000000 0.000000
vn 0.000000 1.000000 0.000000
vn 0.000000 1.000000 0.000000
vn 0.000262 0.000000 -1.000000
vn 0.000262 0.000000 -1.000000
vn 0.000262 0.000000 -1.000000
vn 0.000262 0.000000 -1.000000
vn 1.000000 0.000000 -0.000001
vn 1.000000 0.000000 -0.000001
vn -1.000000 0.000000 -0.000001
vn -1.000000 0.000000 -0.000001
vn 0.000411 0.000000 -1.000000
vn 0.000411 0.000000 -1.000000
vn 0.000411 0.000000 -1.000000
vn 0.000411 0.000000 -1.000000
vn -1.000000 0.000000 -0.000001
vn -1.000000 0.000000 -0.000001
vn 1.000000 0.000000 -0.000001
vn 1.000000 0.000000 -0.000001
vn -0.000000 1.000000 -0.000000
vn -0.000000 1.000000 -0.000000
vn 0.000000 1.000000 0.000000
vn 0.000000 1.000000 0.000000
vn 0.000000 1.000000 0.000000
vn 0.000000 1.000000 0.000000
vn 0.000000 0.000000 1.000000
vn 0.000000 0.000000 1.000000
vn 0.000000 0.000000 1.000000
vn 0.000000 0.000000 1.000000
vn -1.000000 0.000000 0.000000
vn -1.000000 0.000000 0.000000
vn -1.000000 0.000000 0.000000
vn -1.000000 0.000000 0.000000
vn 0.000000 0.000000 -1.000000
vn 0.000000 0.000000 -1.000000
vn 0.000000 0.000000 -1.000000
vn 0.000000 0.000000 -1.000000
vn 1.000000 0.000000 0.000000
vn 1.000000 0.000000 0.000000
vn 1.000000 0.000000 0.000000
vn 1.000000 0.000000 0.000000
vn 0.000000 -0.955496 0.295003
vn 0.000000 -0.955496 0.295003
vn 0.000000 -0.955496 0.295003
vn 0.000000 -0.955496 0.295003
vn -0.604117 -0.796896 0.000000
vn -0.604117 -0.796896 0.000000
vn -0.604117 -0.796896 0.000000
vn -0.604117 -0.796896 0.000000
vn 0.000000 -0.955496 -0.295003
vn 0.000000 -0.955496 -0.295003
vn 0.000000 -0.955496 -0.295003
vn 0.000000 -0.955496 -0.295003
vn 0.604116 -0.796897 0.000000
vn 0.604116 -0.796897 0.000000
vn 0.604116 -0.796896 0.000000
vn 0.604116 -0.796896 0.000000
vn 0.707111 0.707102 0.000000
vn 0.707111 0.707102 0.000000
vn 0.707111 0.707102 0.000000
vn 0.707111 0.707102 0.000000
vn 0.000000 0.707113 0.707100
vn 0.000000 0.707113 0.707100
vn 0.000000 0.707113 0.707100
vn 0.000000 0.707113 0.707100
vn -0.707116 0.707098 0.000000
vn -0.707116 0.707098 0.000000
vn -0.707116 0.707098 0.000000
vn -0.707116 0.707098 0.000000
vn 0.000000 0.707113 -0.707100
vn 0.000000 0.707113 -0.707100
vn 0.000000 0.707113 -0.707100
vn 0.000000 0.707113 -0.707100
vn 0.522272 -0.852779 0.000000
vn 0.522272 -0.852779 0.000000
vn 0.522272 -0.852779 0.000000
vn 0.522272 -0.852779 0.000000
vn 0.000000 -0.993594 0.113007
vn 0.000000 -0.690786 0.723060
vn 0.000000 -0.690785 0.723060
vn 0.000000 -0.993594 0.113008
vn -0.522265 -0.852783 0.000000
vn -0.522265 -0.852783 0.000000
vn -0.522265 -0.852783 0.000000
vn -0.522265 -0.852783 0.000000
vn 0.000000 -0.993594 -0.113008
vn 0.000000 -0.690780 -0.723065
vn 0.000000 -0.690780 -0.723065
vn 0.000000 -0.993594 -0.113008
vn -0.707122 0.707092 0.000000
vn -0.707122 0.707092 0.000000
vn -0.707122 0.707092 0.000000
vn -0.707122 0.707092 0.000000
vn 0.000000 0.707098 0.707116
vn 0.000000 0.707098 0.707116
vn 0.000000 0.707098 0.707116
vn 0.000000 0.707098 0.707116
vn 0.707114 0.707099 0.000000
vn 0.707114 0.707099 0.000000
vn 0.707114 0.707099 0.000000
vn 0.707114 0.707099 0.000000
vn 0.000000 0.707107 -0.707107
vn 0.000000 0.707107 -0.707107
vn 0.000000 0.707107 -0.707107
vn 0.000000 0.707107 -0.707107
vn 0.000000 0.000000 1.000000
vn 0.000000 0.000000 1.000000
vn 0.000000 0.000000 1.000000
vn 0.000000 0.000000 1.000000
vn 0.000000 0.000000 -1.000000
vn 0.000000 0.000000 -1.000000
vn 0.000000 0.000000 -1.000000
vn 0.000000 0.000000 -1.000000
vn 1.000000 0.000000 0.000000
vn 1.000000 0.000000 0.000000
vn 1.000000 0.000000 0.000000
vn 1.000000 0.000000 0.000000
vn -1.000000 0.000000 0.000000
vn -1.000000 0.000000 0.000000
vn -1.000000 0.000000 0.000000
vn -1.000000 0.000000 0.000000
vn 0.000000 1.000000 0.000000
vn 0.000000 1.000000 0.000000
vn 0.000000 1.000000 0.000000
vn 0.000000 1.000000 0.000000
vn 0.000000 1.000000 0.000000
vn 0.000000 1.000000 0.000000
vn 0.000000 1.000000 0.000000
vn 0.000000 1.000000 0.000000
vn 0.000000 -1.000000 0.000000
vn 0.000000 -1.000000 0.000000
vn 0.000000 -1.000000 0.000000
vn 0.000000 -1.000000 0.000000
vn 0.000000 1.000000 0.000000
vn 0.000000 1.000000 0.000000
vn 0.000000 1.000000 0.000000
vn 0.000000 1.000000 0.000000
vn -0.947875 -0.318641 0.000000
vn -0.947875 -0.318641 0.000000
vn -0.947875 -0.318641 0.000000
vn -0.947875 -0.318641 0.000000
vn 0.000000 -0.636592 0.771201
vn 0.000000 -0.636592 0.771201
vn 0.947873 -0.318648 0.000000
vn 0.947873 -0.318648 0.000000
vn 0.947873 -0.318648 0.000000
vn 0.947873 -0.318648 0.000000
vn 0.000000 -0.636585 -0.771206
vn 0.000000 -0.636585 -0.771206
vn 0.000000 0.000000 1.000000
vn 0.000000 0.000000 1.000000
vn 0.000000 0.000000 1.000000
vn 0.000000 0.000000 1.000000
vn 1.000000 0.000000 0.000000
vn 1.000000 0.000000 0.000000
vn 1.000000 0.000000 0.000000
vn 1.000000 0.000000 0.000000
vn 0.000000 0.000000 -1.000000
vn 0.000000 0.000000 -1.000000
vn 0.000000 0.000000 -1.000000
vn 0.000000 0.000000 -1.000000
vn -1.000000 0.000000 0.000000
vn -1.000000 0.000000 0.000000
vn -1.000000 0.000000 0.000000
vn -1.000000 0.000000 0.000000
vn -0.707106 0.707107 0.000000
vn -0.707106 0.707107 0.000000
vn -0.707106 0.707107 0.000000
vn -0.707106 0.707107 0.000000
vn 0.000000 0.707108 0.707105
vn 0.000000 0.707108 0.707105
vn 0.000000 0.707108 0.707105
vn 0.000000 0.707108 0.707105
vn 0.707106 0.707108 0.000000
vn 0.707106 0.707108 0.000000
vn 0.707106 0.707108 0.000000
vn 0.707106 0.707108 0.000000
vn 0.000000 0.707108 -0.707106
vn 0.000000 0.707108 -0.707106
vn 0.000000 0.707108 -0.707106
vn 0.000000 0.707108 -0.707106
vn 0.000000 0.000000 1.000000
vn 0.000000 0.000000 1.000000
vn 0.000000 0.000000 1.000000
vn 0.000000 0.000000 1.000000
vn 0.000000 1.000000 0.000000
vn 0.000000 1.000000 0.000000
vn 0.000000 1.000000 0.000000
vn 0.000000 1.000000 0.000000
vn 0.000000 0.000000 -1.000000
vn 0.000000 0.000000 -1.000000
vn 0.000000 0.000000 -1.000000
vn 0.000000 0.000000 -1.000000
vn 1.000000 0.000000 0.000000
vn 1.000000 0.000000 0.000000
vn 1.000000 0.000000 0.000000
vn 1.000000 0.000000 0.000000
vn -1.000000 0.000000 0.000000
vn -1.000000 0.000000 0.000000
vn -1.000000 0.000000 0.000000
vn -1.000000 0.000000 0.000000
# 276 normals

usemtl lambert5SG
s 1
f 15/1/1 16/2/2 22/3/3 21/4/4
f 21/15/4 22/16/3 35/17/15 36/18/16
s 2
f 16/5/5 15/6/6 18/7/7 17/8/8
s 3
f 17/9/9 18/10/10 20/11/11 19/12/12
f 19/12/12 20/11/11 37/13/13 38/14/14
s 4
f 23/19/17 24/20/18 28/21/19 27/22/20
f 27/22/20 28/21/19 31/27/29 32/28/30
s 5
f 24/20/21 23/19/22 26/23/23 25/24/24
s 6
f 25/24/25 26/23/26 30/25/27 29/26/28
f 29/26/28 30/25/27 34/29/31 33/30/32
s 7
f 32/28/33 31/27/34 33/30/35 34/29/36
s 8
f 36/18/37 35/17/38 38/31/39 37/32/40
s 9
f 7/33/41 8/34/42 24/35/43 25/36/44
s 10
f 8/37/45 9/38/46 28/39/47 24/40/48
f 12/64/83 31/65/84 28/39/47 9/38/46
s 11
f 10/41/49 7/42/50 25/43/51 29/44/52
f 10/41/49 29/44/52 33/66/85 11/67/86
s 12
f 4/45/53 3/46/54 16/5/55 17/8/56
s 13
f 6/47/57 4/48/58 17/9/59 19/12/60
f 6/47/57 19/12/60 38/14/91 13/72/92
s 14
f 3/49/61 5/50/62 22/3/63 16/2/64
f 14/73/93 35/74/94 22/3/63 5/50/62
s 15
f 3/51/65 4/52/66 26/23/67 23/19/68
f 5/53/69 3/51/65 23/19/68 27/22/70
f 4/52/66 6/54/71 30/25/72 26/23/67
f 14/75/95 32/28/96 34/29/97 13/76/98
f 5/53/69 27/22/70 32/28/96 14/75/95
f 13/76/98 34/29/97 30/25/72 6/54/71
s 16
f 2/55/73 1/56/74 20/57/75 18/58/76 15/59/77 21/15/78
f 2/55/73 21/15/78 36/18/99 37/32/100 20/57/75 1/56/74
s 17
f 11/60/79 33/61/80 31/62/81 12/63/82
s 18
f 13/68/87 38/69/88 35/70/89 14/71/90
s 19
f 40/77/101 39/78/102 47/79/103 48/80/104
s 20
f 41/81/105 40/82/106 48/83/107 49/84/108
s 21
f 49/85/109 50/86/110 42/87/111 41/88/112
s 22
f 39/89/113 42/90/114 50/91/115 47/92/116
s 23
f 56/93/117 57/94/118 51/95/119 52/96/120
s 24
f 55/97/121 56/93/122 52/96/123 53/98/124
s 25
f 53/98/125 54/99/126 58/100/127 55/97/128
s 26
f 57/94/129 58/100/130 54/99/131 51/95/132
s 27
f 59/101/133 60/102/134 65/103/135 66/104/136
s 28
f 60/102/137 59/101/138 62/105/139 61/106/140
s 29
f 61/106/141 62/105/142 63/107/143 64/108/144
s 30
f 64/108/145 63/107/146 66/104/147 65/103/148
s 31
f 67/109/149 68/110/150 73/111/151 74/112/152
s 32
f 68/110/153 67/109/154 70/113/155 69/114/156
f 71/116/161 72/115/162 74/112/163 73/111/164
f 48/145/205 47/146/206 68/110/153 69/114/156
f 49/147/207 48/145/205 69/114/156 71/116/161
f 50/148/208 49/147/207 71/116/161 73/111/164
f 47/146/206 50/148/208 73/111/164 68/110/153
f 70/113/155 67/109/154 57/94/217 56/93/218
f 55/97/223 58/100/224 74/112/163 72/115/162
s 33
f 69/114/157 70/113/158 72/115/159 71/116/160
s 34
f 75/117/165 76/118/166 81/119/167 82/120/168
s 35
f 76/118/169 75/117/170 78/121/171 77/122/172
s 36
f 77/122/173 78/121/174 80/123/175 79/124/176
s 37
f 79/124/177 80/123/178 82/120/179 81/119/180
s 38
f 43/125/181 44/126/182 60/127/183 61/128/184
s 39
f 64/129/185 65/130/186 45/131/187 46/132/188
s 40
f 44/133/189 45/134/190 65/135/191 60/136/192
s 41
f 46/137/193 43/138/194 61/139/195 64/140/196
s 42
f 39/141/197 40/142/198 62/105/199 59/101/200
f 41/143/201 42/144/202 66/104/203 63/107/204
f 42/144/202 39/141/197 59/101/200 66/104/203
f 40/142/198 41/143/201 63/107/204 62/105/199
s 43
f 76/118/209 77/122/210 79/124/211 81/119/212
s 44
f 72/115/213 70/113/214 56/93/215 55/97/216
s 45
f 67/109/219 74/112/220 58/100/221 57/94/222
s 46
f 52/149/225 51/150/226 78/151/227 75/152/228
s 47
f 51/153/229 54/154/230 80/155/231 78/156/232
s 48
f 54/157/233 53/158/234 82/159/235 80/160/236
s 49
f 53/161/237 52/162/238 75/163/239 82/164/240
s 50
f 87/165/241 88/166/242 91/167/243 92/168/244
s 51
f 88/166/245 87/165/246 90/169/247 89/170/248
s 52
f 89/170/249 90/169/250 94/171/251 93/172/252
s 53
f 92/168/253 91/167/254 93/172/255 94/171/256
s 54
f 83/173/257 84/174/258 90/175/259 87/176/260
s 55
f 88/166/261 89/170/262 93/172/263 91/167/264
s 56
f 92/177/265 94/178/266 86/179/267 85/180/268
s 57
f 84/181/269 86/182/270 94/183/271 90/184/272
s 58
f 85/185/273 83/186/274 87/187/275 92/188/276

# 82 faces
